<?xml version="1.0" encoding="UTF-8" standalone="no"?>
<!-- Created with Inkscape (http://www.inkscape.org/) -->

<svg
   xmlns:dc="http://purl.org/dc/elements/1.1/"
   xmlns:cc="http://creativecommons.org/ns#"
   xmlns:rdf="http://www.w3.org/1999/02/22-rdf-syntax-ns#"
   xmlns:svg="http://www.w3.org/2000/svg"
   xmlns="http://www.w3.org/2000/svg"
   xmlns:sodipodi="http://sodipodi.sourceforge.net/DTD/sodipodi-0.dtd"
   xmlns:inkscape="http://www.inkscape.org/namespaces/inkscape"
   width="210mm"
   height="297mm"
   viewBox="0 0 210 297"
   version="1.1"
   id="svg1131"
   inkscape:version="0.92.3 (3ce5693, 2018-03-11)"
   sodipodi:docname="meltdown-shirt.svg">
  <defs
     id="defs1125" />
  <sodipodi:namedview
     id="base"
     pagecolor="#ffffff"
     bordercolor="#666666"
     borderopacity="1.0"
     inkscape:pageopacity="0.0"
     inkscape:pageshadow="2"
     inkscape:zoom="0.11313708"
     inkscape:cx="2248.4274"
     inkscape:cy="134.46486"
     inkscape:document-units="mm"
     inkscape:current-layer="layer1"
     showgrid="false"
     inkscape:snap-bbox="true"
     inkscape:bbox-paths="true"
     inkscape:window-width="1539"
     inkscape:window-height="876"
     inkscape:window-x="61"
     inkscape:window-y="24"
     inkscape:window-maximized="1">
    <inkscape:grid
       type="xygrid"
       id="grid1735" />
  </sodipodi:namedview>
  <metadata
     id="metadata1128">
    <rdf:RDF>
      <cc:Work
         rdf:about="">
        <dc:format>image/svg+xml</dc:format>
        <dc:type
           rdf:resource="http://purl.org/dc/dcmitype/StillImage" />
        <dc:title></dc:title>
      </cc:Work>
    </rdf:RDF>
  </metadata>
  <g
     inkscape:label="Ebene 1"
     inkscape:groupmode="layer"
     id="layer1">
    <rect
       style="fill:#000000;fill-opacity:1;stroke:none;stroke-width:7.64645863;stroke-linejoin:round;stroke-miterlimit:4;stroke-dasharray:none;stroke-dashoffset:0;stroke-opacity:1"
       id="rect1084"
       width="1581.5785"
       height="790.789"
       x="-601.34711"
       y="-211.76492" />
    <g
       id="g2025">
      <g
         id="g1096"
         transform="matrix(0.2645823,0,0,0.2645823,-300.78247,78.464728)"
         style="fill:#ff9600">
        <ellipse
           cx="366.60001"
           cy="698"
           rx="9.6999998"
           ry="12.9"
           id="ellipse1086" />
        <path
           d="M 543.4,166.2 C 482.4,139.5 421.6,112.4 361,85.1 c -2.8,-1.4 -6.1,-1.4 -8.8,0 -61.1,27.1 -122.1,54.2 -183.1,81.2 -3.1,0.8 -5.1,3.8 -4.7,6.9 0.4,41.6 0,83.2 0.4,124.7 0.2,52.8 16.1,104.2 45.5,147.8 0,0.9 -0.1,1.8 -0.1,2.5 -0.8,9.6 5.6,26.1 13.6,19.9 0.9,-0.7 1.6,-1 2.2,-1.2 1.2,1.5 2.4,2.9 3.6,4.3 0.7,4.5 0.1,11.3 0.2,15.1 0.1,7 1.1,25.1 15,18.1 3.8,-1.9 6.5,-5 8.5,-8.5 1,0.9 1.9,1.8 2.9,2.6 0.1,1.3 0.4,2.6 0.8,4.1 2.6,9.8 1.1,81 1.1,81 0,0 1.7,15.7 12.2,15.7 10.5,0 11.3,-15.7 11.3,-15.7 v -47.9 c 0,0 2.2,-8.8 12.9,-6.1 10.7,2.7 10.7,13.5 10.7,13.5 v 107.6 c 0,0 1.3,11.1 11.3,11.1 9.1,0 10.5,-12.8 10.5,-12.8 l 5.5,-104.5 c 4.9,1.8 9.9,3.5 15,5 2.6,0.8 5.4,1.3 8.1,1.3 l 0.4,56.7 c 0,0 1.2,26.5 14.4,26 13,-0.5 13.1,-27.8 13.1,-27.8 v -41.8 c 0,0 2.5,-13 10.3,-13 7.8,0 9.8,10.7 9.8,16.5 0,5.8 1,20.8 1.4,24.5 0.4,3.7 4.8,10.9 12,11 7.1,0.1 11.5,-10.7 11.5,-14.5 0,-3.8 0.8,-50 0.8,-50 0,0 -0.8,-17.5 10.2,-18.6 13.9,-1.5 10.7,8.5 12.7,11.4 2,2.9 5,3.5 8.5,3.7 3.5,0.2 10.3,-4.2 11,-12.9 0.4,-5.5 1.4,-25.8 2,-39.8 5.6,-6 11,-12.4 16,-19 38,-47.8 58.6,-107.1 58.4,-168.1 v -53.9 c -0.2,-22.4 -0.2,-44.9 0.1,-67.3 0.4,-3.3 -1.6,-6.5 -4.8,-7.7 z m -28.3,32.4 v 55.9 44.6 c 0.2,33 -7.1,65.4 -20.8,95 -16.8,40.5 -39.5,73.5 -46.2,73.7 -3.3,0.1 -4.6,3 -6.4,7.4 -2,4.8 -4.2,11.5 -6.8,12.9 -4,2.2 -5.5,1.7 -10,2.1 -7.6,0.7 -6,21.2 -7.9,26.7 -0.6,1.7 -2.7,6.5 -6.8,7.5 -1.9,0.5 -4.5,-0.3 -6.8,-2.2 -4.3,-3.4 -2.3,-12.9 -8.3,-17.1 -10.4,-7.4 -16.6,7 -16.6,7 v 15.6 c 0,0 -0.4,11.7 -6.6,9.4 -6.2,-2.2 -5.2,-15.5 -5.2,-15.5 v -12.5 c -1,0.3 -2,0.6 -3.1,1 -4.8,1.5 -10,1.5 -14.8,0 -5.6,-1.7 -11.1,-3.6 -16.4,-5.8 -0.5,4.1 -1.3,9.1 -2.6,10.1 -2.5,1.8 -6.5,2.5 -10.5,-0.2 -3.7,-2.5 -5.7,-11.4 -6.1,-17.5 0,-0.5 0,-0.9 -0.1,-1.3 -28.2,-14.8 -52.8,-36.1 -71.5,-62.4 -28.5,-38 -43.9,-84.2 -44.2,-131.6 -0.4,-34.5 0,-68.9 0,-103.4 -0.3,-2.6 1.3,-5 3.8,-5.7 50.4,-22.3 100.9,-44.8 151.4,-67.4 2.3,-1.2 5,-1.2 7.3,0 50.4,22.6 100.8,45 151.2,67.2 2.8,1 4.4,3.7 4,6.5 z"
           id="path1088"
           inkscape:connector-curvature="0" />
        <path
           d="m 359.5,155 c -1.9,-1 -4.2,-1 -6.2,0 -42.7,19 -85.2,37.9 -127.8,56.8 -2,0.7 -3.3,2.6 -3.2,4.7 v 87.3 c 0.1,9.5 0.8,19.1 2.3,28.5 1.5,9.3 3.6,18.4 6.4,27.4 L 433.5,188 Z"
           id="path1090"
           inkscape:connector-curvature="0" />
        <path
           d="M 487.1,211.7 463.4,201.2 242.8,388 c 2.3,4.4 4.7,8.8 7.3,13 v 22.7 c 0,0 -1.1,8.3 5.2,9.7 6.2,1.4 6.6,-5.9 6.6,-5.9 v -9.6 c 3.4,4.4 7,8.7 10.8,12.8 L 449,281.5 v 6.1 c 0,0 -1.1,8.3 5.2,9.7 6.2,1.4 6.6,-5.9 6.6,-5.9 v -19.9 l 9.6,-8.1 c 0.8,1.4 2,2.6 4,3 6.2,1.4 6.6,-5.9 6.6,-5.9 v -6.2 l 9.4,-8 V 217 c 0.4,-2.3 -1,-4.6 -3.3,-5.3 z"
           id="path1092"
           inkscape:connector-curvature="0" />
        <path
           d="M 490.5,285 294.4,451.1 c 3.4,2.7 7,5.2 10.6,7.7 0.1,0.3 0.3,0.7 0.4,1.1 1.4,3.8 7.8,11.6 12.6,8.4 2.4,-1.6 6.4,3.9 6.4,6.8 0,2.9 2.3,6.8 7.3,6.8 3.7,0 5.9,-2.7 7.1,-5.7 3.7,1.4 7.4,2.6 11.1,3.7 4.1,1.3 8.4,1.3 12.5,0 11.4,-3.4 22.4,-8 32.7,-13.6 v 17.3 c 0,0 2.5,6.6 8.2,6.6 5,0 7.3,-4.2 8,-8.4 0.7,-4.1 1.5,-22.5 4.8,-25.2 3.3,-2.8 4.9,6.8 15.3,6.9 8.2,0.1 9.4,-18.4 16.5,-34.3 2.7,-6 15.5,-29.7 15.5,-29.7 17.7,-29.3 27.1,-63.1 27,-97.7 0.1,-5.5 0.1,-11.2 0.1,-16.8 z"
           id="path1094"
           inkscape:connector-curvature="0" />
      </g>
      <g
         transform="translate(4.9610241,-21.312272)"
         aria-label="I "
         style="font-style:normal;font-variant:normal;font-weight:normal;font-stretch:normal;font-size:168.57356262px;line-height:1.25;font-family:'AmerType Md BT';-inkscape-font-specification:'AmerType Md BT';letter-spacing:0px;word-spacing:0px;fill:#ffffff;fill-opacity:1;stroke:none;stroke-width:7.64645815;stroke-linejoin:round;stroke-miterlimit:4;stroke-dasharray:none;stroke-opacity:1"
         id="text1104">
        <path
           d="m -347.57247,157.53204 q 0,-5.02098 -2.05778,-7.40801 -2.05778,-2.38703 -6.33797,-2.38703 -2.30472,0 -5.67948,0.49387 -3.29245,0.49386 -4.28019,0.49386 -2.79858,0 -4.52712,-1.64622 -1.72854,-1.64623 -1.72854,-4.44481 0,-3.21014 1.72854,-4.77406 1.81085,-1.56391 5.35023,-1.56391 0.41156,0 8.88962,0.7408 8.47807,0.7408 16.62689,0.7408 7.73726,0 15.96839,-0.7408 8.23113,-0.7408 8.80731,-0.7408 3.53939,0 5.26793,1.56391 1.81085,1.56392 1.81085,4.77406 0,2.71627 -1.81085,4.44481 -1.72854,1.64622 -4.60944,1.64622 -0.98773,0 -4.3625,-0.49386 -3.29245,-0.49387 -5.59716,-0.49387 -4.19788,0 -6.25566,2.38703 -1.97548,2.38703 -1.97548,7.40801 v 72.10471 q 0,5.1033 1.97548,7.57264 2.05778,2.38703 6.25566,2.38703 2.30471,0 5.59716,-0.57618 3.37477,-0.57618 4.3625,-0.57618 2.8809,0 4.60944,1.72854 1.81085,1.64623 1.81085,4.28019 0,3.29245 -1.81085,4.85637 -1.72854,1.56391 -5.26793,1.56391 -0.32924,0 -8.64268,-0.7408 -8.23114,-0.7408 -16.13302,-0.7408 -8.56038,0 -17.03844,0.7408 -8.39576,0.7408 -8.47807,0.7408 -3.53938,0 -5.35023,-1.56391 -1.72854,-1.56392 -1.72854,-4.85637 0,-2.71628 1.72854,-4.3625 1.72854,-1.64623 4.52712,-1.64623 0.98774,0 4.28019,0.57618 3.37476,0.57618 5.67948,0.57618 4.19788,0 6.25566,-2.46934 2.14009,-2.46934 2.14009,-7.49033 z"
           style="font-style:normal;font-variant:normal;font-weight:normal;font-stretch:normal;font-family:'AmerType Md BT';-inkscape-font-specification:'AmerType Md BT';letter-spacing:0.79374999px;fill:#ffffff;fill-opacity:1;stroke:none;stroke-width:7.64645815;stroke-linejoin:round;stroke-miterlimit:4;stroke-dasharray:none;stroke-opacity:1"
           id="path1884"
           inkscape:connector-curvature="0" />
      </g>
      <g
         transform="translate(10.252691,-21.312272)"
         id="g1750">
        <g
           aria-label="Intel CPU"
           style="font-style:normal;font-variant:normal;font-weight:normal;font-stretch:normal;font-size:168.57356262px;line-height:1.25;font-family:'AmerType Md BT';-inkscape-font-specification:'AmerType Md BT';letter-spacing:0px;word-spacing:0px;fill:#ffffff;fill-opacity:1;stroke:none;stroke-width:7.64645815;stroke-linejoin:round;stroke-miterlimit:4;stroke-dasharray:none;stroke-opacity:1"
           id="text1100">
          <path
             d="m -101.46021,155.47426 q 0,-5.02099 -2.05778,-7.40802 -2.05778,-2.38703 -6.33797,-2.38703 -2.30472,0 -5.67948,0.49387 -3.29246,0.49387 -4.28019,0.49387 -2.79859,0 -4.52712,-1.64623 -1.72854,-1.64622 -1.72854,-4.44481 0,-3.21014 1.72854,-4.77405 1.81085,-1.56392 5.35023,-1.56392 0.41156,0 8.88962,0.7408 8.47807,0.74081 16.626888,0.74081 7.737263,0 15.968394,-0.74081 8.231131,-0.7408 8.80731,-0.7408 3.539387,0 5.267924,1.56392 1.810849,1.56391 1.810849,4.77405 0,2.71628 -1.810849,4.44481 -1.728537,1.64623 -4.609433,1.64623 -0.987736,0 -4.3625,-0.49387 -3.292452,-0.49387 -5.597169,-0.49387 -4.197877,0 -6.255659,2.38703 -1.975472,2.38703 -1.975472,7.40802 v 72.10471 q 0,5.1033 1.975472,7.57264 2.057782,2.38703 6.255659,2.38703 2.304717,0 5.597169,-0.57618 3.374764,-0.57618 4.3625,-0.57618 2.880896,0 4.609433,1.72854 1.810849,1.64622 1.810849,4.28018 0,3.29246 -1.810849,4.85637 -1.728537,1.56392 -5.267924,1.56392 -0.329245,0 -8.642687,-0.74081 -8.231131,-0.7408 -16.133017,-0.7408 -8.560378,0 -17.038438,0.7408 -8.39576,0.74081 -8.47807,0.74081 -3.53938,0 -5.35023,-1.56392 -1.72854,-1.56391 -1.72854,-4.85637 0,-2.71627 1.72854,-4.3625 1.72853,-1.64622 4.52712,-1.64622 0.98773,0 4.28019,0.57618 3.37476,0.57618 5.67948,0.57618 4.19787,0 6.25566,-2.46934 2.14009,-2.46934 2.14009,-7.49033 z"
             style="font-style:normal;font-variant:normal;font-weight:normal;font-stretch:normal;font-family:'AmerType Md BT';-inkscape-font-specification:'AmerType Md BT';letter-spacing:0.79374999px;fill:#ffffff;fill-opacity:1;stroke:none;stroke-width:7.64645815;stroke-linejoin:round;stroke-miterlimit:4;stroke-dasharray:none;stroke-opacity:1"
             id="path1864"
             inkscape:connector-curvature="0" />
          <path
             d="m 26.010642,203.13251 q 0,-15.22759 -5.103301,-21.73019 -5.02099,-6.5849 -16.6268847,-6.5849 -13.0874983,0 -19.1785353,9.05424 -6.091037,9.05425 -6.091037,28.72665 v 17.03844 q 0,5.18561 1.152359,7.07877 1.234669,1.81085 4.609433,1.81085 0.493868,0 2.469339,-0.24693 1.975472,-0.24694 3.3747639,-0.24694 3.3747637,0 4.9386786,1.3993 1.6462262,1.31698 1.6462262,4.19787 0,2.55165 -1.4816036,3.86863 -1.4816036,1.31699 -4.4448107,1.31699 -0.4938679,0 -7.1610844,-0.6585 -6.584904,-0.65849 -12.675941,-0.65849 -5.103302,0 -11.112027,0.65849 -6.008726,0.6585 -6.91415,0.6585 -3.539387,0 -5.02099,-1.15236 -1.399292,-1.15236 -1.399292,-3.86863 0,-2.8809 1.728537,-4.28019 1.728538,-1.48161 5.185613,-1.48161 0.905424,0 2.387028,0.24694 1.481603,0.24693 2.140094,0.24693 4.856367,0 6.420282,-1.72854 1.646226,-1.81084 1.646226,-8.39575 v -40.7441 q 0,-7.07877 -1.728537,-9.4658 -1.646227,-2.38703 -6.337971,-2.38703 h -5.185613 q -3.292452,0 -4.774056,-0.98773 -1.481603,-1.07005 -1.481603,-3.37477 0,-2.63396 1.728537,-4.03325 1.810849,-1.4816 5.02099,-1.4816 0.411557,0 2.798585,0.24693 2.387028,0.24693 4.44481,0.24693 5.103302,0 10.453537,-0.41155 1.152358,-0.0823 1.316981,-0.0823 3.210141,0 4.280188,1.31698 1.152358,1.31698 1.152358,5.59717 v 6.17334 q 5.926414,-7.73726 12.5113192,-11.11202 6.5849048,-3.37477 15.6391489,-3.37477 17.1207529,0 24.7757039,8.39576 7.737263,8.39575 7.737263,27.32735 v 26.66887 q 0,8.14882 1.563915,9.87735 1.563915,1.72854 6.337971,1.72854 1.070047,0 2.46934,-0.24693 1.399292,-0.24694 1.975471,-0.24694 3.457075,0 5.267924,1.48161 1.810849,1.39929 1.810849,4.28019 0,2.63396 -1.646227,3.86863 -1.563914,1.15236 -5.103301,1.15236 -0.905424,0 -6.996461,-0.6585 -6.008726,-0.65849 -11.112027,-0.65849 -6.008726,0 -12.59363,0.65849 -6.584905,0.6585 -7.078773,0.6585 -2.880896,0 -4.4448108,-1.31699 -1.4816036,-1.31698 -1.4816036,-3.86863 0,-2.88089 1.5639149,-4.19787 1.5639145,-1.3993 4.8563675,-1.3993 1.399292,0 3.457075,0.24694 2.057783,0.24693 2.633962,0.24693 3.457075,0 4.527122,-1.89316 1.152358,-1.97547 1.152358,-9.38349 z"
             style="font-style:normal;font-variant:normal;font-weight:normal;font-stretch:normal;font-family:'AmerType Md BT';-inkscape-font-specification:'AmerType Md BT';letter-spacing:0.79374999px;fill:#ffffff;fill-opacity:1;stroke:none;stroke-width:7.64645815;stroke-linejoin:round;stroke-miterlimit:4;stroke-dasharray:none;stroke-opacity:1"
             id="path1866"
             inkscape:connector-curvature="0" />
          <path
             d="m 70.92325,166.09242 q 1.399292,0 1.975471,-0.57618 0.576179,-0.57618 0.576179,-1.97547 v -16.05071 q 0,-2.2224 1.646226,-3.70401 1.646227,-1.4816 4.280188,-1.4816 2.633962,0 4.3625,1.56392 1.810849,1.4816 1.810849,3.62169 v 15.55684 q 0,2.05778 0.411556,2.55165 0.411557,0.49387 1.975472,0.49387 h 16.873819 q 3.04552,0 4.69174,1.4816 1.72854,1.39929 1.72854,4.03326 0,2.9632 -1.81085,4.3625 -1.81085,1.39929 -5.43254,1.39929 H 87.961691 q -1.316981,0 -1.89316,1.07005 -0.493868,0.98773 -0.493868,3.62169 v 35.39387 q 0,14.07523 2.469339,17.94386 2.469339,3.86863 8.889621,3.86863 5.514857,0 8.560377,-3.70401 3.04552,-3.704 3.04552,-10.53584 0,-1.3993 -0.16462,-4.28019 -0.16463,-2.8809 -0.16463,-4.28019 0,-3.86863 1.3993,-5.8441 1.4816,-2.05779 4.28018,-2.05779 3.78632,0 5.35024,2.55166 1.56391,2.46933 1.56391,8.88962 0,14.89834 -6.42028,22.80023 -6.42028,7.90189 -18.684666,7.90189 -12.182074,0 -17.449998,-6.17335 -5.267924,-6.25566 -5.267924,-20.98939 v -41.4849 q 0,-3.12783 -0.576179,-3.86863 -0.493868,-0.82311 -1.810849,-0.82311 h -6.420282 q -2.963207,0 -4.280188,-1.31698 -1.399292,-1.39929 -1.399292,-4.28019 0,-2.96321 1.481603,-4.28019 1.399293,-1.39929 4.527122,-1.39929 z"
             style="font-style:normal;font-variant:normal;font-weight:normal;font-stretch:normal;font-family:'AmerType Md BT';-inkscape-font-specification:'AmerType Md BT';letter-spacing:0.79374999px;fill:#ffffff;fill-opacity:1;stroke:none;stroke-width:7.64645815;stroke-linejoin:round;stroke-miterlimit:4;stroke-dasharray:none;stroke-opacity:1"
             id="path1868"
             inkscape:connector-curvature="0" />
          <path
             d="m 146.04413,208.56505 v 0.49387 q 0,13.91061 6.83184,22.30637 6.91415,8.39575 18.27311,8.39575 6.91415,0 11.60589,-2.46934 4.77406,-2.46934 8.64269,-7.9842 1.4816,-2.2224 3.12783,-6.74952 2.55165,-6.74953 6.42028,-6.74953 2.46934,0 4.11557,1.72854 1.64622,1.64622 1.64622,4.19787 0,2.96321 -1.97547,7.40802 -1.97547,4.3625 -5.26792,8.725 -5.1033,6.58491 -12.18208,9.71274 -6.99646,3.12783 -16.7915,3.12783 -17.45,0 -27.73891,-11.77052 -10.20661,-11.85283 -10.20661,-31.93679 0,-20.00165 10.20661,-31.77217 10.28891,-11.85282 27.73891,-11.85282 16.7915,0 26.83348,10.12429 10.04198,10.04198 10.04198,26.9158 0,4.85636 -1.64622,6.50259 -1.64623,1.64622 -6.42028,1.64622 h -2.8809 z m 0.82311,-10.78278 h 46.50589 v -1.07004 q 0,-10.04198 -6.33797,-16.29764 -6.25566,-6.25566 -16.37995,-6.25566 -9.95967,0 -16.37995,6.33797 -6.33797,6.33797 -7.40802,17.28537 z"
             style="font-style:normal;font-variant:normal;font-weight:normal;font-stretch:normal;font-family:'AmerType Md BT';-inkscape-font-specification:'AmerType Md BT';letter-spacing:0.79374999px;fill:#ffffff;fill-opacity:1;stroke:none;stroke-width:7.64645815;stroke-linejoin:round;stroke-miterlimit:4;stroke-dasharray:none;stroke-opacity:1"
             id="path1870"
             inkscape:connector-curvature="0" />
          <path
             d="m 236.06333,226.92048 v -65.60212 q 0,-10.9474 -1.72853,-13.41674 -1.72854,-2.55165 -6.66722,-2.55165 h -6.09104 q -3.04551,0 -4.19787,-1.07005 -1.15236,-1.07005 -1.15236,-3.70401 0,-2.46934 1.56391,-3.78632 1.64623,-1.39929 4.69175,-1.39929 0.0823,0 2.71627,0.24693 2.63396,0.24694 5.02099,0.24694 5.76179,0 11.52359,-0.41156 1.15235,-0.0823 1.39929,-0.0823 3.37476,0 4.52712,1.31698 1.23467,1.23467 1.23467,5.59717 v 84.61603 q 0,7.65495 1.4816,9.63042 1.48161,1.97547 6.42028,1.97547 1.07005,0 2.46934,-0.16462 1.3993,-0.16462 1.97548,-0.16462 3.53938,0 5.26792,1.39929 1.81085,1.39929 1.81085,4.19788 0,2.71627 -1.56392,3.86863 -1.4816,1.15236 -5.02099,1.15236 -0.98773,0 -6.91415,-0.6585 -5.92641,-0.65849 -10.78278,-0.65849 -9.13655,0 -18.52004,1.07005 -2.05779,0.24694 -2.55165,0.24694 -3.6217,0 -5.18562,-1.15236 -1.56391,-1.23467 -1.56391,-3.86863 0,-2.79859 1.72854,-4.19788 1.81085,-1.39929 5.35023,-1.39929 0.82311,0 2.38703,0.16462 1.56391,0.16462 2.30472,0.16462 5.02099,0 6.50259,-1.97547 1.56391,-1.97547 1.56391,-9.63042 z"
             style="font-style:normal;font-variant:normal;font-weight:normal;font-stretch:normal;font-family:'AmerType Md BT';-inkscape-font-specification:'AmerType Md BT';letter-spacing:0.79374999px;fill:#ffffff;fill-opacity:1;stroke:none;stroke-width:7.64645815;stroke-linejoin:round;stroke-miterlimit:4;stroke-dasharray:none;stroke-opacity:1"
             id="path1872"
             inkscape:connector-curvature="0" />
          <path
             d="m 411.73924,146.00846 v -3.53939 q 0,-4.77405 1.15236,-6.50259 1.15235,-1.72854 4.03325,-1.72854 2.8809,0 4.19788,1.39929 1.39929,1.31699 1.39929,4.11557 0,0.57618 -0.16462,2.71627 -0.98774,11.27665 -0.98774,22.05943 0,2.38703 0.57618,6.5026 0.57618,4.11556 0.57618,6.00872 0,4.11557 -1.31698,5.76179 -1.31698,1.64623 -4.60943,1.64623 -3.21015,0 -4.60944,-2.05778 -1.39929,-2.1401 -1.39929,-7.07877 v -4.03326 q 0,-11.77052 -7.81957,-19.34316 -7.73727,-7.65495 -19.83703,-7.65495 -16.54457,0 -26.33962,12.67594 -9.71273,12.59363 -9.71273,34.07689 0,22.47098 9.38349,34.9823 9.4658,12.51132 26.33961,12.51132 10.78279,0 18.02618,-4.60943 7.2434,-4.60944 10.78278,-13.91061 1.15236,-2.96321 1.81085,-7.90189 0.7408,-4.93868 1.07005,-6.33797 0.41156,-1.64623 1.89316,-2.71627 1.56391,-1.07005 3.6217,-1.07005 3.12783,0 4.85636,2.22241 1.72854,2.14009 1.72854,6.17334 0,18.35543 -11.93514,29.22052 -11.85283,10.78278 -32.0191,10.78278 -23.95259,0 -37.69858,-15.63915 -13.74599,-15.72146 -13.74599,-42.88419 0,-26.83349 13.58137,-42.71957 13.58137,-15.9684 36.29929,-15.9684 9.71273,0 17.69693,3.37477 8.06651,3.29245 13.16981,9.4658 z"
             style="font-style:normal;font-variant:normal;font-weight:normal;font-stretch:normal;font-family:'AmerType Md BT';-inkscape-font-specification:'AmerType Md BT';letter-spacing:0.79374999px;fill:#ffffff;fill-opacity:1;stroke:none;stroke-width:7.64645815;stroke-linejoin:round;stroke-miterlimit:4;stroke-dasharray:none;stroke-opacity:1"
             id="path1874"
             inkscape:connector-curvature="0" />
          <path
             d="m 461.34359,227.57897 v -72.10471 q 0,-5.1033 -2.1401,-7.57264 -2.05778,-2.55165 -6.25566,-2.55165 -2.38702,0 -5.76179,0.65849 -3.29245,0.65849 -4.19787,0.65849 -2.8809,0 -4.60944,-1.64623 -1.64622,-1.64622 -1.64622,-4.44481 0,-3.21014 1.72853,-4.77405 1.72854,-1.56392 5.35024,-1.56392 1.4816,0 8.725,0.7408 7.3257,0.74081 12.84056,0.74081 6.25566,0 17.12075,-0.74081 10.8651,-0.7408 15.55684,-0.7408 19.09623,0 28.72665,8.23113 9.71273,8.23113 9.71273,24.44646 0,8.725 -2.88089,14.98066 -2.79859,6.17335 -8.88962,10.61816 -5.02099,3.78632 -11.68821,5.35023 -6.66722,1.56392 -20.66014,1.56392 -2.88089,0 -6.33797,-0.0823 -3.37476,-0.0823 -3.95094,-0.0823 -3.95095,0 -5.26793,0.82311 -1.31698,0.82311 -1.31698,3.37476 v 24.11722 q 0,5.59717 2.1401,7.73726 2.14009,2.05778 7.49033,2.05778 1.39929,0 4.3625,-0.49386 2.9632,-0.49387 4.3625,-0.49387 2.63396,0 4.44481,1.81085 1.81084,1.72853 1.81084,4.3625 0,3.04551 -2.46933,4.69174 -2.46934,1.56392 -7.16109,1.56392 -3.21014,0 -10.9474,-0.74081 -7.73727,-0.7408 -12.09977,-0.7408 -6.99646,0 -14.89834,0.7408 -7.81958,0.74081 -8.725,0.74081 -3.6217,0 -5.35024,-1.56392 -1.72853,-1.56391 -1.72853,-4.85637 0,-2.63396 1.64622,-4.28018 1.72854,-1.72854 4.44481,-1.72854 1.56392,0 4.28019,0.49387 2.79859,0.49386 4.11557,0.49386 5.43254,0 7.73726,-2.2224 2.38703,-2.30472 2.38703,-7.57264 z m 14.15754,-44.28349 q 0,2.96321 1.81085,3.95095 1.89316,0.90542 8.97193,0.90542 20.3309,0 27.90354,-4.60943 7.65495,-4.69175 7.65495,-16.29764 0,-11.85283 -6.74953,-16.87382 -6.66721,-5.02099 -22.71792,-5.02099 -11.6882,0 -14.32217,1.72854 -2.55165,1.72853 -2.55165,7.65495 z"
             style="font-style:normal;font-variant:normal;font-weight:normal;font-stretch:normal;font-family:'AmerType Md BT';-inkscape-font-specification:'AmerType Md BT';letter-spacing:0.79374999px;fill:#ffffff;fill-opacity:1;stroke:none;stroke-width:7.64645815;stroke-linejoin:round;stroke-miterlimit:4;stroke-dasharray:none;stroke-opacity:1"
             id="path1876"
             inkscape:connector-curvature="0" />
          <path
             d="m 651.618,196.38298 v 8.31344 5.67948 q 0,8.80731 -0.98773,13.74599 -0.98774,4.93868 -3.12783,9.05425 -4.3625,8.39575 -14.07524,12.84056 -9.71273,4.3625 -23.78796,4.3625 -11.27665,0 -19.91934,-2.79858 -8.64269,-2.8809 -13.66368,-8.14882 -4.77405,-5.02099 -6.91415,-12.01746 -2.05778,-6.99646 -2.05778,-19.6724 v -11.35896 -40.90872 q 0,-4.85637 -2.05778,-7.16108 -1.97548,-2.30472 -6.33798,-2.30472 -2.30471,0 -5.67948,0.41156 -3.29245,0.41155 -4.28018,0.41155 -2.79859,0 -4.52713,-1.72854 -1.72853,-1.72853 -1.72853,-4.52712 0,-3.21014 1.72853,-4.77405 1.81085,-1.56392 5.35024,-1.56392 1.31698,0 8.725,0.7408 7.49033,0.74081 13.74599,0.74081 5.76179,0 13.58136,-0.74081 7.90189,-0.7408 10.04198,-0.7408 4.03326,0 6.33797,1.64623 2.38703,1.56391 2.38703,4.3625 0,2.9632 -1.64622,4.77405 -1.56392,1.81085 -4.11557,1.81085 -1.4816,0 -4.19788,-0.41155 -2.71627,-0.41156 -3.86863,-0.41156 -4.77405,0 -6.66721,1.97547 -1.89316,1.97547 -1.89316,7.49033 v 54.40778 q 0,15.55683 6.25566,21.8948 6.25565,6.25566 21.23631,6.25566 14.65142,0 20.90708,-6.17334 6.33797,-6.25566 6.33797,-20.98939 V 203.791 155.63888 q 0,-5.59717 -1.89316,-7.57264 -1.81085,-2.05778 -6.5026,-2.05778 -1.15236,0 -3.86863,0.41156 -2.71627,0.41155 -4.19788,0.41155 -2.63396,0 -4.28018,-1.72854 -1.64623,-1.81084 -1.64623,-4.69174 0,-2.79858 2.38703,-4.44481 2.46934,-1.72854 6.50259,-1.72854 2.1401,0 9.87736,0.7408 7.81957,0.74081 13.58137,0.74081 6.25565,0 13.66367,-0.74081 7.49033,-0.7408 8.80731,-0.7408 3.53939,0 5.35024,1.64623 1.89316,1.64622 1.89316,4.85637 0,2.71627 -1.81085,4.44481 -1.72854,1.64622 -4.60943,1.64622 -0.98774,0 -4.3625,-0.41155 -3.29246,-0.41156 -5.59717,-0.41156 -3.6217,0 -6.00873,2.2224 -2.38703,2.1401 -2.38703,5.35024 0,0.24693 0.0823,0.82311 0.0823,0.57618 0.0823,1.07005 z"
             style="letter-spacing:-13.22916698px"
             id="path1878"
             inkscape:connector-curvature="0" />
        </g>
        <g
           aria-label="s"
           style="font-style:normal;font-variant:normal;font-weight:normal;font-stretch:normal;font-size:168.57356262px;line-height:1.25;font-family:'AmerType Md BT';-inkscape-font-specification:'AmerType Md BT';letter-spacing:0px;word-spacing:0px;fill:#ffffff;fill-opacity:1;stroke:none;stroke-width:7.64645815;stroke-linejoin:round;stroke-miterlimit:4;stroke-dasharray:none;stroke-opacity:1"
           id="text1731">
          <path
             d="m 678.48313,240.37198 v 2.2224 q 0,3.29245 -1.39929,5.02099 -1.3993,1.72854 -4.11557,1.72854 -2.79858,0 -4.03325,-1.56392 -1.23467,-1.4816 -1.23467,-4.85636 0,-2.96321 0.49387,-7.40802 0.57617,-4.44481 0.57617,-5.92642 0,-3.45707 -0.57617,-7.65495 -0.49387,-4.28019 -0.49387,-5.1033 0,-2.46934 1.64622,-4.28019 1.72854,-1.81085 4.11557,-1.81085 2.71627,0 3.86863,1.89316 1.15236,1.81085 1.15236,6.33798 v 2.38702 q 0,7.81958 6.99646,12.51132 6.99646,4.69175 18.84929,4.69175 9.05424,0 13.99292,-3.86863 5.02099,-3.86864 5.02099,-10.78279 0,-2.79858 -1.56391,-5.26792 -1.56392,-2.46934 -4.52712,-4.19788 -2.05779,-1.23467 -10.20661,-2.2224 -8.0665,-0.98774 -12.84056,-1.97547 -12.51132,-2.63397 -18.1908,-8.31345 -5.59717,-5.67948 -5.59717,-15.47452 0,-11.11203 8.23113,-17.69693 8.23113,-6.58491 22.30637,-6.58491 6.66721,0 12.18207,1.89316 5.59717,1.81085 9.87736,5.51486 -0.0823,-0.41156 -0.16462,-0.82311 0,-0.49387 0,-1.3993 0,-2.38702 1.15235,-3.78632 1.15236,-1.39929 3.21014,-1.39929 1.81085,0 3.04552,1.56392 1.31698,1.56391 1.31698,3.62169 0,0.24694 -0.0823,1.23467 -0.90542,8.06651 -0.90542,17.86156 v 4.69174 q 0,2.8809 -1.23467,4.28019 -1.15236,1.31698 -3.6217,1.31698 -2.55165,0 -3.6217,-1.31698 -0.98773,-1.39929 -0.98773,-4.93868 v -2.2224 q 0,-7.32571 -5.43255,-11.52359 -5.35023,-4.28018 -14.73372,-4.28018 -8.725,0 -13.66368,3.62169 -4.93868,3.6217 -4.93868,10.04198 0,2.63396 0.90543,4.69175 0.98773,2.05778 2.79858,3.37476 4.03325,3.21014 15.96839,4.3625 5.02099,0.41156 7.90189,0.90542 13.58137,2.05779 19.75471,7.40802 6.17335,5.26793 6.17335,14.98066 0,12.26439 -8.88962,19.91934 -8.88962,7.57264 -23.37641,7.57264 -7.9842,0 -14.5691,-2.38703 -6.5026,-2.30472 -10.53585,-6.5849 z"
             style="letter-spacing:0px"
             id="path1881"
             inkscape:connector-curvature="0" />
        </g>
      </g>
    </g>
    <g
       transform="translate(9.2373365,526.05572)"
       id="g1862">
      <g
         style="fill:#ff9600"
         transform="matrix(0.2645823,0,0,0.2645823,-305.74349,99.777)"
         id="g1840">
        <ellipse
           id="ellipse1830"
           ry="12.9"
           rx="9.6999998"
           cy="698"
           cx="366.60001" />
        <path
           inkscape:connector-curvature="0"
           id="path1832"
           d="M 543.4,166.2 C 482.4,139.5 421.6,112.4 361,85.1 c -2.8,-1.4 -6.1,-1.4 -8.8,0 -61.1,27.1 -122.1,54.2 -183.1,81.2 -3.1,0.8 -5.1,3.8 -4.7,6.9 0.4,41.6 0,83.2 0.4,124.7 0.2,52.8 16.1,104.2 45.5,147.8 0,0.9 -0.1,1.8 -0.1,2.5 -0.8,9.6 5.6,26.1 13.6,19.9 0.9,-0.7 1.6,-1 2.2,-1.2 1.2,1.5 2.4,2.9 3.6,4.3 0.7,4.5 0.1,11.3 0.2,15.1 0.1,7 1.1,25.1 15,18.1 3.8,-1.9 6.5,-5 8.5,-8.5 1,0.9 1.9,1.8 2.9,2.6 0.1,1.3 0.4,2.6 0.8,4.1 2.6,9.8 1.1,81 1.1,81 0,0 1.7,15.7 12.2,15.7 10.5,0 11.3,-15.7 11.3,-15.7 v -47.9 c 0,0 2.2,-8.8 12.9,-6.1 10.7,2.7 10.7,13.5 10.7,13.5 v 107.6 c 0,0 1.3,11.1 11.3,11.1 9.1,0 10.5,-12.8 10.5,-12.8 l 5.5,-104.5 c 4.9,1.8 9.9,3.5 15,5 2.6,0.8 5.4,1.3 8.1,1.3 l 0.4,56.7 c 0,0 1.2,26.5 14.4,26 13,-0.5 13.1,-27.8 13.1,-27.8 v -41.8 c 0,0 2.5,-13 10.3,-13 7.8,0 9.8,10.7 9.8,16.5 0,5.8 1,20.8 1.4,24.5 0.4,3.7 4.8,10.9 12,11 7.1,0.1 11.5,-10.7 11.5,-14.5 0,-3.8 0.8,-50 0.8,-50 0,0 -0.8,-17.5 10.2,-18.6 13.9,-1.5 10.7,8.5 12.7,11.4 2,2.9 5,3.5 8.5,3.7 3.5,0.2 10.3,-4.2 11,-12.9 0.4,-5.5 1.4,-25.8 2,-39.8 5.6,-6 11,-12.4 16,-19 38,-47.8 58.6,-107.1 58.4,-168.1 v -53.9 c -0.2,-22.4 -0.2,-44.9 0.1,-67.3 0.4,-3.3 -1.6,-6.5 -4.8,-7.7 z m -28.3,32.4 v 55.9 44.6 c 0.2,33 -7.1,65.4 -20.8,95 -16.8,40.5 -39.5,73.5 -46.2,73.7 -3.3,0.1 -4.6,3 -6.4,7.4 -2,4.8 -4.2,11.5 -6.8,12.9 -4,2.2 -5.5,1.7 -10,2.1 -7.6,0.7 -6,21.2 -7.9,26.7 -0.6,1.7 -2.7,6.5 -6.8,7.5 -1.9,0.5 -4.5,-0.3 -6.8,-2.2 -4.3,-3.4 -2.3,-12.9 -8.3,-17.1 -10.4,-7.4 -16.6,7 -16.6,7 v 15.6 c 0,0 -0.4,11.7 -6.6,9.4 -6.2,-2.2 -5.2,-15.5 -5.2,-15.5 v -12.5 c -1,0.3 -2,0.6 -3.1,1 -4.8,1.5 -10,1.5 -14.8,0 -5.6,-1.7 -11.1,-3.6 -16.4,-5.8 -0.5,4.1 -1.3,9.1 -2.6,10.1 -2.5,1.8 -6.5,2.5 -10.5,-0.2 -3.7,-2.5 -5.7,-11.4 -6.1,-17.5 0,-0.5 0,-0.9 -0.1,-1.3 -28.2,-14.8 -52.8,-36.1 -71.5,-62.4 -28.5,-38 -43.9,-84.2 -44.2,-131.6 -0.4,-34.5 0,-68.9 0,-103.4 -0.3,-2.6 1.3,-5 3.8,-5.7 50.4,-22.3 100.9,-44.8 151.4,-67.4 2.3,-1.2 5,-1.2 7.3,0 50.4,22.6 100.8,45 151.2,67.2 2.8,1 4.4,3.7 4,6.5 z" />
        <path
           inkscape:connector-curvature="0"
           id="path1834"
           d="m 359.5,155 c -1.9,-1 -4.2,-1 -6.2,0 -42.7,19 -85.2,37.9 -127.8,56.8 -2,0.7 -3.3,2.6 -3.2,4.7 v 87.3 c 0.1,9.5 0.8,19.1 2.3,28.5 1.5,9.3 3.6,18.4 6.4,27.4 L 433.5,188 Z" />
        <path
           inkscape:connector-curvature="0"
           id="path1836"
           d="M 487.1,211.7 463.4,201.2 242.8,388 c 2.3,4.4 4.7,8.8 7.3,13 v 22.7 c 0,0 -1.1,8.3 5.2,9.7 6.2,1.4 6.6,-5.9 6.6,-5.9 v -9.6 c 3.4,4.4 7,8.7 10.8,12.8 L 449,281.5 v 6.1 c 0,0 -1.1,8.3 5.2,9.7 6.2,1.4 6.6,-5.9 6.6,-5.9 v -19.9 l 9.6,-8.1 c 0.8,1.4 2,2.6 4,3 6.2,1.4 6.6,-5.9 6.6,-5.9 v -6.2 l 9.4,-8 V 217 c 0.4,-2.3 -1,-4.6 -3.3,-5.3 z" />
        <path
           inkscape:connector-curvature="0"
           id="path1838"
           d="M 490.5,285 294.4,451.1 c 3.4,2.7 7,5.2 10.6,7.7 0.1,0.3 0.3,0.7 0.4,1.1 1.4,3.8 7.8,11.6 12.6,8.4 2.4,-1.6 6.4,3.9 6.4,6.8 0,2.9 2.3,6.8 7.3,6.8 3.7,0 5.9,-2.7 7.1,-5.7 3.7,1.4 7.4,2.6 11.1,3.7 4.1,1.3 8.4,1.3 12.5,0 11.4,-3.4 22.4,-8 32.7,-13.6 v 17.3 c 0,0 2.5,6.6 8.2,6.6 5,0 7.3,-4.2 8,-8.4 0.7,-4.1 1.5,-22.5 4.8,-25.2 3.3,-2.8 4.9,6.8 15.3,6.9 8.2,0.1 9.4,-18.4 16.5,-34.3 2.7,-6 15.5,-29.7 15.5,-29.7 17.7,-29.3 27.1,-63.1 27,-97.7 0.1,-5.5 0.1,-11.2 0.1,-16.8 z" />
      </g>
      <text
         id="text1844"
         y="250.04996"
         x="-377.03992"
         style="font-style:normal;font-variant:normal;font-weight:normal;font-stretch:normal;font-size:168.57356262px;line-height:1.25;font-family:'AmerType Md BT';-inkscape-font-specification:'AmerType Md BT';letter-spacing:0px;word-spacing:0px;fill:#ffffff;fill-opacity:1;stroke:none;stroke-width:7.64645815;stroke-linejoin:round;stroke-miterlimit:4;stroke-dasharray:none;stroke-opacity:1"
         xml:space="preserve"><tspan
           style="font-style:normal;font-variant:normal;font-weight:normal;font-stretch:normal;font-family:'AmerType Md BT';-inkscape-font-specification:'AmerType Md BT';letter-spacing:0.79374999px;fill:#ffffff;fill-opacity:1;stroke:none;stroke-width:7.64645815;stroke-linejoin:round;stroke-miterlimit:4;stroke-dasharray:none;stroke-opacity:1"
           y="250.04996"
           x="-377.03992"
           id="tspan1842"
           sodipodi:role="line">I </tspan></text>
      <g
         id="g1860"
         transform="translate(5.2916667)">
        <text
           id="text1852"
           y="247.99217"
           x="-130.92766"
           style="font-style:normal;font-variant:normal;font-weight:normal;font-stretch:normal;font-size:168.57356262px;line-height:1.25;font-family:'AmerType Md BT';-inkscape-font-specification:'AmerType Md BT';letter-spacing:0px;word-spacing:0px;fill:#ffffff;fill-opacity:1;stroke:none;stroke-width:7.64645815;stroke-linejoin:round;stroke-miterlimit:4;stroke-dasharray:none;stroke-opacity:1"
           xml:space="preserve"><tspan
             style="font-style:normal;font-variant:normal;font-weight:normal;font-stretch:normal;font-family:'AmerType Md BT';-inkscape-font-specification:'AmerType Md BT';letter-spacing:0.79374999px;fill:#ffffff;fill-opacity:1;stroke:none;stroke-width:7.64645815;stroke-linejoin:round;stroke-miterlimit:4;stroke-dasharray:none;stroke-opacity:1"
             y="247.99217"
             x="-130.92766"
             id="tspan1850"
             sodipodi:role="line">Intel CP<tspan
   id="tspan1846"
   style="letter-spacing:-13.22916698px">U</tspan><tspan
   id="tspan1848"
   style="letter-spacing:0px" /></tspan></text>
        <text
           xml:space="preserve"
           style="font-style:normal;font-variant:normal;font-weight:normal;font-stretch:normal;font-size:168.57356262px;line-height:1.25;font-family:'AmerType Md BT';-inkscape-font-specification:'AmerType Md BT';letter-spacing:0px;word-spacing:0px;fill:#ffffff;fill-opacity:1;stroke:none;stroke-width:7.64645815;stroke-linejoin:round;stroke-miterlimit:4;stroke-dasharray:none;stroke-opacity:1"
           x="659.79846"
           y="247.46301"
           id="text1858"><tspan
             sodipodi:role="line"
             id="tspan1856"
             x="659.79846"
             y="247.46301"
             style="font-style:normal;font-variant:normal;font-weight:normal;font-stretch:normal;font-family:'AmerType Md BT';-inkscape-font-specification:'AmerType Md BT';letter-spacing:0.79374999px;fill:#ffffff;fill-opacity:1;stroke:none;stroke-width:7.64645815;stroke-linejoin:round;stroke-miterlimit:4;stroke-dasharray:none;stroke-opacity:1"><tspan
               style="letter-spacing:0px"
               id="tspan1854"
               dy="-1">s</tspan></tspan></text>
      </g>
    </g>
  </g>
</svg>
