<?xml version="1.0" encoding="UTF-8" standalone="no"?>
<svg xmlns:svg="http://www.w3.org/2000/svg" xmlns="http://www.w3.org/2000/svg" viewBox="0 0 210 297" height="297mm" width="210mm">
<rect y="-211.76492" x="-601.34711" height="790.789" width="1581.5785" style="fill:#000000;fill-opacity:1;stroke:none;stroke-width:7.64645863;stroke-linejoin:round;stroke-miterlimit:4;stroke-dasharray:none;stroke-dashoffset:0;stroke-opacity:1" />
<path d="m -206.44218,100.7029 c -0.40018,0 -0.79726,0.0928 -1.15445,0.27802 -16.16598,7.17018 -32.30558,14.34024 -48.4451,21.48396 -0.82021,0.21167 -1.34917,1.00552 -1.24334,1.82572 0.10583,11.00663 1.1e-4,22.01317 0.10594,32.99334 0.0529,13.96994 4.25982,27.56931 12.03854,39.1051 0,0.23812 -0.0269,0.47626 -0.0269,0.66146 -0.21167,2.53999 1.48157,6.90572 3.59823,5.26531 0.23812,-0.1852 0.42364,-0.26489 0.58239,-0.31781 0.3175,0.39688 0.6349,0.7675 0.9524,1.13792 0.1852,1.19062 0.0262,2.98969 0.0527,3.9951 0.0265,1.85208 0.29105,6.64094 3.96875,4.78886 1.00541,-0.50271 1.71979,-1.32292 2.24896,-2.24896 0.26458,0.23812 0.5028,0.47667 0.76739,0.68833 0.0264,0.34396 0.10605,0.68782 0.21187,1.08469 0.68793,2.59291 0.29094,21.43125 0.29094,21.43125 0,0 0.44959,4.15375 3.22771,4.15375 2.77811,0 2.99,-4.15375 2.99,-4.15375 v -12.67365 c 0,0 0.5822,-2.32822 3.41323,-1.61385 2.83103,0.71438 2.83083,3.57187 2.83083,3.57187 v 28.46907 c 0,0 0.34417,2.93677 2.99,2.93677 2.4077,0 2.77813,-3.38688 2.77813,-3.38688 l 1.45521,-27.64895 c 1.29646,0.47625 2.61938,0.92604 3.96875,1.32291 0.68791,0.21167 1.42864,0.34417 2.14302,0.34417 l 0.10593,15.00167 c 0,0 0.31711,7.01145 3.80959,6.87916 3.43957,-0.1323 3.46646,-7.3551 3.46646,-7.3551 v -11.05979 c 0,0 0.66116,-3.43959 2.72489,-3.43959 2.06374,0 2.59313,2.83105 2.59313,4.36563 0,1.53457 0.26417,5.50334 0.37,6.48229 0.10583,0.97896 1.27001,2.88396 3.175,2.91042 1.87853,0.0264 3.04271,-2.83104 3.04271,-3.83646 0,-1.00541 0.21187,-13.22917 0.21187,-13.22917 0,0 -0.21185,-4.6301 2.69855,-4.92115 3.67769,-0.39688 2.83134,2.24907 3.36051,3.01636 0.52917,0.76728 1.32292,0.92583 2.24896,0.97875 0.92603,0.0529 2.72521,-1.11137 2.91042,-3.41323 0.10583,-1.4552 0.37042,-6.82594 0.52917,-10.53011 1.48166,-1.58748 2.91042,-3.28084 4.23333,-5.02708 10.05413,-12.64703 15.50417,-28.33682 15.45125,-44.47635 v -14.26115 c -0.0529,-5.92664 -0.0525,-11.87951 0.0269,-17.80615 0.10583,-0.87312 -0.42353,-1.71958 -1.2702,-2.03708 -16.13952,-7.06435 -32.2259,-14.23451 -48.25959,-21.4576 -0.37041,-0.18521 -0.77391,-0.27802 -1.17409,-0.27802 z m -0.0827,10.56989 c 0.33073,0 0.66105,0.0795 0.96532,0.23823 13.33495,5.97956 26.66985,11.90607 40.00479,17.77979 0.74083,0.26458 1.16417,0.97897 1.05833,1.7198 h 5.2e-4 v 14.79031 11.80031 c 0.0529,8.73122 -1.87876,17.30379 -5.50354,25.13542 -4.44498,10.71559 -10.45084,19.44666 -12.22354,19.49958 -0.87312,0.0265 -1.21719,0.79385 -1.69344,1.95802 -0.52916,1.26999 -1.11145,3.04281 -1.79937,3.41323 -1.05833,0.58208 -1.45522,0.44969 -2.64584,0.55552 -2.01083,0.18521 -1.58708,5.60897 -2.08979,7.06417 -0.15875,0.44979 -0.71458,1.71979 -1.79938,1.98437 -0.5027,0.13229 -1.19083,-0.0792 -1.79937,-0.58187 -1.1377,-0.89958 -0.60824,-3.41303 -2.19573,-4.52427 -2.75166,-1.95791 -4.39198,1.85208 -4.39198,1.85208 v 4.1274 c 0,0 -0.10625,3.09572 -1.74666,2.48718 -1.64041,-0.58208 -1.37563,-4.10104 -1.37563,-4.10104 v -3.30729 c -0.26458,0.0794 -0.52906,0.15875 -0.82011,0.26458 -1.26999,0.39687 -2.64605,0.39687 -3.91604,0 -1.48165,-0.44979 -2.93647,-0.95271 -4.33875,-1.53479 -0.13229,1.08479 -0.34437,2.40761 -0.68833,2.67219 -0.66145,0.47625 -1.71979,0.66165 -2.77812,-0.0527 -0.97896,-0.66146 -1.50803,-3.01626 -1.61386,-4.63021 0,-0.13229 1.5e-4,-0.23833 -0.0264,-0.34416 -7.46122,-3.91582 -13.97002,-9.55107 -18.91771,-16.50959 -7.54059,-10.05412 -11.61501,-22.27786 -11.69438,-34.81906 -0.10584,-9.12809 0,-18.22993 0,-27.35802 -0.0794,-0.68791 0.34365,-1.32271 1.00511,-1.50792 13.33495,-5.90018 26.69661,-11.85346 40.05802,-17.83302 0.30427,-0.15875 0.6351,-0.23823 0.96583,-0.23823 z m 0.0496,8.00365 c -0.28112,0 -0.56586,0.0662 -0.83044,0.19844 -11.29767,5.02707 -22.54224,10.02793 -33.81344,15.02854 -0.52917,0.18521 -0.87292,0.6877 -0.84646,1.24333 v 23.09833 c 0.0265,2.51353 0.21136,5.05303 0.60823,7.54011 0.39688,2.46061 0.95261,4.86845 1.69344,7.24969 l 53.57812,-45.42875 -19.57916,-8.73125 c -0.25136,-0.13229 -0.52917,-0.19844 -0.81029,-0.19844 z m 28.30008,12.4225 -58.36646,49.42385 c 0.60854,1.16416 1.24324,2.32833 1.93115,3.43958 v 6.00584 c 0,0 -0.29125,2.19583 1.37562,2.56625 1.64041,0.37041 1.74667,-1.56063 1.74667,-1.56063 v -2.54041 c 0.89958,1.16416 1.85178,2.30209 2.85719,3.38687 l 46.64573,-39.47562 v 1.61385 c 0,0 -0.29073,2.19635 1.37614,2.56677 1.64041,0.37041 1.74615,-1.56115 1.74615,-1.56115 v -5.26531 l 2.53989,-2.14302 c 0.21167,0.37041 0.52918,0.68792 1.05834,0.79375 1.64041,0.37042 1.74614,-1.56114 1.74614,-1.56114 v -1.64021 l 2.48719,-2.11667 v -7.7525 c 0.10583,-0.60854 -0.26427,-1.21729 -0.87281,-1.4025 z m 7.17011,22.17177 -51.88418,43.94719 c 0.89958,0.71438 1.85199,1.37562 2.80448,2.03708 0.0265,0.0794 0.0795,0.1851 0.10594,0.29094 0.37042,1.00541 2.06366,3.06926 3.33365,2.2226 0.635,-0.42333 1.69343,1.03209 1.69343,1.79938 0,0.76729 0.60824,1.79885 1.93115,1.79885 0.97895,0 1.56094,-0.71417 1.87844,-1.50792 0.97896,0.37042 1.95833,0.68772 2.93729,0.97876 1.08478,0.34396 2.22199,0.34396 3.30677,0 3.01624,-0.89958 5.92699,-2.11656 8.65219,-3.59823 v 4.57749 c 0,0 0.66126,1.74615 2.16938,1.74615 1.32291,0 1.93145,-1.11135 2.11666,-2.2226 0.18521,-1.08479 0.39708,-5.95293 1.27021,-6.6673 0.87312,-0.74082 1.29616,1.79928 4.04781,1.82573 2.16959,0.0265 2.4871,-4.86855 4.36563,-9.07541 0.71437,-1.58749 4.10104,-7.85792 4.10104,-7.85792 4.6831,-7.75226 7.17021,-16.69504 7.14375,-25.84958 0.0265,-1.45521 0.0264,-2.96355 0.0264,-4.44521 z m -32.78147,105.85917 a 2.5664482,3.4131117 0 0 0 -2.56676,3.41323 2.5664482,3.4131117 0 0 0 2.56676,3.41322 2.5664482,3.4131117 0 0 0 2.56626,-3.41322 2.5664482,3.4131117 0 0 0 -2.56626,-3.41323 z" style="fill:#ff9600" />
<path d="m 391.12496,111.8557 c -15.14527,0 -27.24483,5.32294 -36.29908,15.96854 -9.05426,10.59072 -13.58159,24.83036 -13.58159,42.71935 0,18.10849 4.58245,32.40323 13.74645,42.88421 9.16398,10.4261 21.73007,15.63935 37.69847,15.63935 13.44416,0 24.11735,-3.59428 32.01924,-10.7828 7.95676,-7.2434 11.93466,-16.98401 11.93466,-29.22096 0,-2.68883 -0.5757,-4.74654 -1.72807,-6.17326 -1.15234,-1.48161 -2.77133,-2.22209 -4.85653,-2.22209 -1.37187,0 -2.5794,0.35633 -3.62202,1.0697 -0.98771,0.71336 -1.61853,1.61915 -1.8929,2.71663 -0.2195,0.93286 -0.57635,3.04515 -1.07022,6.3376 -0.43899,3.29245 -1.04251,5.92637 -1.81075,7.90184 -2.35958,6.20078 -5.95387,10.83782 -10.78281,13.91078 -4.82891,3.07295 -10.83775,4.60954 -18.02627,4.60954 -11.24921,0 -20.02896,-4.1705 -26.33948,-12.51138 -6.25565,-8.34088 -9.3834,-20.00171 -9.3834,-34.98236 0,-14.32218 3.23742,-25.68124 9.71257,-34.07699 6.53004,-8.45063 15.30977,-12.67571 26.33948,-12.67571 8.06651,0 14.67884,2.55153 19.83703,7.65483 5.21306,5.04842 7.81968,11.49599 7.81968,19.343 v 4.03335 c 0,3.29244 0.46654,5.65242 1.39941,7.07915 0.93286,1.37186 2.46943,2.05776 4.60954,2.05776 2.19496,0 3.73155,-0.54893 4.60952,-1.64641 0.87799,-1.09748 1.31672,-3.01821 1.31672,-5.76193 0,-1.2621 -0.19206,-3.26471 -0.57618,-6.00841 -0.38412,-2.74372 -0.57621,-4.91161 -0.57621,-6.50297 0,-7.18852 0.32957,-14.54135 0.98806,-22.05911 0.10975,-1.42673 0.16433,-2.33252 0.16433,-2.71664 0,-1.86572 -0.46654,-3.23751 -1.3994,-4.11551 -0.87797,-0.93286 -2.27706,-1.39888 -4.19767,-1.39888 -1.92061,0 -3.26512,0.5757 -4.03334,1.72806 -0.76824,1.15236 -1.15239,3.32026 -1.15239,6.50297 v 3.53931 c -3.4022,-4.11556 -7.79206,-7.27112 -13.16974,-9.46609 -5.32281,-2.24984 -11.22196,-3.37447 -17.69711,-3.37447 z m -499.86458,1.07022 c -2.35958,0 -4.14334,0.52112 -5.35057,1.56373 -1.15236,1.04261 -1.72858,2.63378 -1.72858,4.77387 0,1.86573 0.57622,3.34721 1.72858,4.44469 1.15235,1.09749 2.66164,1.64641 4.52737,1.64641 0.65849,0 2.08487,-0.16478 4.27984,-0.49403 2.24984,-0.32924 4.14328,-0.49351 5.67976,-0.49351 2.853457,0 4.966261,0.79559 6.338112,2.38694 1.371854,1.59135 2.057757,4.06049 2.057757,7.40782 v 72.10464 c 0,3.34732 -0.713711,5.84427 -2.140439,7.4905 -1.371859,1.64622 -3.456853,2.46961 -6.25543,2.46961 -1.53648,0 -3.42992,-0.19207 -5.67976,-0.57619 -2.19497,-0.38412 -3.62135,-0.57619 -4.27984,-0.57619 -1.86573,0 -3.37502,0.54841 -4.52737,1.64589 -1.15236,1.09749 -1.72858,2.55168 -1.72858,4.36253 0,2.19497 0.57622,3.81394 1.72858,4.85655 1.20723,1.04261 2.99099,1.56373 5.35057,1.56373 0.0549,0 2.88087,-0.24665 8.47804,-0.74053 5.652042,-0.49386 11.331318,-0.74104 17.038238,-0.74104 5.267923,0 10.645444,0.24718 16.132865,0.74104 5.542293,0.49388 8.423386,0.74053 8.642882,0.74053 2.359591,0 4.115538,-0.52112 5.267896,-1.56373 1.207233,-1.04261 1.810742,-2.66158 1.810742,-4.85655 0,-1.75598 -0.603509,-3.18236 -1.810742,-4.27985 -1.152358,-1.15236 -2.688942,-1.72857 -4.609539,-1.72857 -0.65849,0 -2.112679,0.19207 -4.362524,0.57619 -2.194967,0.38412 -4.060595,0.57619 -5.597072,0.57619 -2.798586,0 -4.883579,-0.7961 -6.255433,-2.38745 -1.316982,-1.64623 -1.975591,-4.17046 -1.975591,-7.57266 v -72.10464 c 0,-3.34733 0.658609,-5.81647 1.975591,-7.40782 1.371854,-1.59135 3.456847,-2.38694 6.255433,-2.38694 1.536477,0 3.402105,0.16427 5.597072,0.49351 2.249845,0.32925 3.704034,0.49403 4.362524,0.49403 1.920597,0 3.457181,-0.54892 4.609539,-1.64641 1.207233,-1.15235 1.810742,-2.63384 1.810742,-4.44469 0,-2.14009 -0.603509,-3.73126 -1.810742,-4.77387 -1.152358,-1.04261 -2.908305,-1.56373 -5.267896,-1.56373 -0.38412,0 -3.319793,0.24666 -8.807215,0.74053 -5.487418,0.49387 -10.810359,0.74104 -15.968532,0.74104 -5.432547,0 -10.974845,-0.24717 -16.626893,-0.74104 -5.652035,-0.49387 -8.615005,-0.74053 -8.889385,-0.74053 z m 562.80338,0 c -2.41449,0 -4.1977,0.52112 -5.35006,1.56373 -1.15237,1.04261 -1.72858,2.63378 -1.72858,4.77387 0,1.86573 0.54893,3.34721 1.6464,4.44469 1.15236,1.09749 2.68893,1.64641 4.60954,1.64641 0.60362,0 2.00271,-0.21936 4.19767,-0.65836 2.24986,-0.43899 4.17057,-0.65835 5.76193,-0.65835 2.79858,0 4.88358,0.85016 6.25544,2.55126 1.42672,1.64623 2.14043,4.17046 2.14043,7.57267 v 72.10464 c 0,3.51194 -0.79611,6.03618 -2.38744,7.57266 -1.53649,1.4816 -4.11531,2.22261 -7.737,2.22261 -0.87799,0 -2.24978,-0.16479 -4.11552,-0.49403 -1.81083,-0.32925 -3.23775,-0.49351 -4.28035,-0.49351 -1.81086,0 -3.29234,0.57621 -4.4447,1.72857 -1.09747,1.09749 -1.6464,2.52387 -1.6464,4.27985 0,2.19497 0.57621,3.81394 1.72858,4.85655 1.15236,1.04261 2.93557,1.56373 5.35006,1.56373 0.60362,0 3.512,-0.24665 8.72503,-0.74053 5.26793,-0.49386 10.23403,-0.74104 14.89831,-0.74104 2.90836,0 6.94188,0.24718 12.10006,0.74104 5.15816,0.49388 8.80703,0.74053 10.94714,0.74053 3.12782,0 5.51508,-0.52112 7.16132,-1.56373 1.64621,-1.09749 2.46909,-2.66137 2.46909,-4.6917 0,-1.75599 -0.60354,-3.21018 -1.81073,-4.36253 -1.20724,-1.20723 -2.68872,-1.81074 -4.44471,-1.81074 -0.93287,0 -2.38705,0.16426 -4.36253,0.49351 -1.97546,0.32924 -3.42966,0.49403 -4.3625,0.49403 -3.56685,0 -6.06378,-0.68591 -7.49052,-2.05776 -1.42673,-1.42673 -2.13992,-4.00607 -2.13992,-7.73751 V 182.1496 c 0,-1.7011 0.43926,-2.82625 1.31723,-3.37499 0.87799,-0.54873 2.63393,-0.8232 5.26791,-0.8232 0.38412,0 1.70082,0.0278 3.95065,0.0827 2.30473,0.0549 4.41753,0.0822 6.33812,0.0822 9.32862,0 16.21546,-0.52112 20.66023,-1.56373 4.44481,-1.04261 8.34085,-2.82637 11.68818,-5.35058 4.06069,-2.96321 7.02365,-6.50239 8.88939,-10.61796 1.92058,-4.17043 2.88097,-9.16381 2.88097,-14.98048 0,-10.81021 -3.23745,-18.95915 -9.71259,-24.44656 -6.4203,-5.48743 -15.99613,-8.23103 -28.72693,-8.23103 -3.12785,0 -8.31328,0.24666 -15.55668,0.74053 -7.24339,0.49387 -12.95048,0.74104 -17.12092,0.74104 -3.67657,0 -7.95676,-0.24717 -12.84057,-0.74104 -4.82891,-0.49387 -7.73732,-0.74053 -8.72503,-0.74053 z m 105.74083,0 c -2.35961,0 -4.14285,0.52112 -5.35006,1.56373 -1.15237,1.04261 -1.72858,2.63378 -1.72858,4.77387 0,1.86573 0.57621,3.37502 1.72858,4.52737 1.15234,1.15236 2.66113,1.72858 4.52683,1.72858 0.6585,0 2.0854,-0.1375 4.28038,-0.41186 2.24983,-0.27438 4.14277,-0.41135 5.67923,-0.41135 2.90835,0 5.02113,0.76829 6.33812,2.30477 1.37186,1.53648 2.05774,3.92323 2.05774,7.16081 v 40.90913 11.35847 c 0,8.45063 0.68591,15.0084 2.05777,19.67271 1.42674,4.66431 3.73161,8.67002 6.91431,12.01735 3.34732,3.51195 7.90196,6.22826 13.66377,8.14886 5.76178,1.86572 12.40142,2.79879 19.91918,2.79879 9.3835,0 17.31306,-1.45419 23.78821,-4.36252 6.47518,-2.96321 11.16679,-7.2434 14.07512,-12.84056 1.42674,-2.74372 2.46949,-5.76178 3.12798,-9.05423 0.65847,-3.29245 0.98753,-7.87491 0.98753,-13.74645 v -5.67924 -8.31318 l 0.16434,-40.90913 c 0,-0.32925 -0.0273,-0.68559 -0.0822,-1.06971 -0.0548,-0.38412 -0.0822,-0.65858 -0.0822,-0.8232 0,-2.1401 0.79558,-3.92385 2.38694,-5.35058 1.59134,-1.4816 3.59447,-2.22209 6.00893,-2.22209 1.53649,0 3.40212,0.13697 5.59707,0.41135 2.24984,0.27436 3.70404,0.41186 4.36253,0.41186 1.92059,0 3.45718,-0.54893 4.60955,-1.64641 1.20721,-1.15236 1.81073,-2.63385 1.81073,-4.44469 0,-2.1401 -0.63133,-3.75907 -1.89341,-4.85655 -1.20725,-1.09749 -2.99048,-1.6459 -5.35007,-1.6459 -0.87799,0 -3.81367,0.24666 -8.80721,0.74053 -4.93868,0.49387 -9.49335,0.74104 -13.66377,0.74104 -3.84119,0 -8.36856,-0.24717 -13.58162,-0.74104 -5.15815,-0.49387 -8.45018,-0.74053 -9.87689,-0.74053 -2.68886,0 -4.85675,0.5757 -6.50298,1.72806 -1.59134,1.09749 -2.38692,2.57949 -2.38692,4.44521 0,1.9206 0.54891,3.48448 1.6464,4.6917 1.09749,1.15236 2.52386,1.72858 4.27985,1.72858 0.98774,0 2.38733,-0.1375 4.19819,-0.41186 1.81084,-0.27438 3.10026,-0.41135 3.8685,-0.41135 3.12783,0 5.29522,0.68591 6.50246,2.05776 1.26206,1.31698 1.89341,3.84122 1.89341,7.57266 v 48.1521 7.07864 c 0,9.82249 -2.11281,16.81898 -6.33812,20.98942 -4.17044,4.11556 -11.13912,6.17326 -20.90674,6.17326 -9.9871,0 -17.066,-2.08499 -21.23641,-6.25543 -4.17044,-4.22531 -6.25597,-11.52357 -6.25597,-21.89479 v -54.40804 c 0,-3.67658 0.63132,-6.17301 1.89344,-7.48999 1.26211,-1.31698 3.48459,-1.97559 6.66729,-1.97559 0.76824,0 2.05766,0.13697 3.8685,0.41135 1.81086,0.27436 3.20995,0.41186 4.19766,0.41186 1.70112,0 3.0729,-0.60403 4.11552,-1.81126 1.09749,-1.20723 1.64642,-2.7984 1.64642,-4.77387 0,-1.86572 -0.79558,-3.31992 -2.38694,-4.36252 -1.53646,-1.09749 -3.64926,-1.6459 -6.33812,-1.6459 -1.42671,0 -4.77382,0.24666 -10.04176,0.74053 -5.21306,0.49387 -9.74039,0.74104 -13.58159,0.74104 -4.17044,0 -8.75239,-0.24717 -13.74595,-0.74104 -4.93866,-0.49387 -7.84706,-0.74053 -8.72503,-0.74053 z m -327.06996,1.15187 c -2.03035,0 -3.59422,0.46654 -4.69171,1.3994 -1.0426,0.87798 -1.56372,2.1401 -1.56372,3.78633 0,1.75597 0.38414,2.9908 1.15238,3.70417 0.76824,0.71336 2.16734,1.07022 4.19768,1.07022 h 6.0911 c 3.29245,0 5.51493,0.85016 6.66729,2.55126 1.15235,1.64623 1.72858,6.11849 1.72858,13.41675 v 65.6022 c 0,5.1033 -0.52164,8.31344 -1.56425,9.63042 -0.98773,1.31698 -3.15512,1.97559 -6.50244,1.97559 -0.49387,0 -1.26216,-0.0551 -2.30477,-0.16485 -1.04261,-0.10975 -1.8382,-0.16433 -2.38694,-0.16433 -2.35958,0 -4.14282,0.46654 -5.35006,1.3994 -1.15236,0.93286 -1.72857,2.33195 -1.72857,4.19767 0,1.75598 0.52112,3.04539 1.56372,3.8685 1.04262,0.76824 2.77127,1.15239 5.18573,1.15239 0.32924,0 1.17941,-0.0824 2.55127,-0.24702 6.25566,-0.71336 12.42928,-1.0697 18.52032,-1.0697 3.23758,0 6.83185,0.21937 10.78281,0.65836 3.95094,0.439 6.25581,0.65836 6.9143,0.65836 2.35958,0 4.03315,-0.38415 5.02087,-1.15239 1.04261,-0.76824 1.56374,-2.05765 1.56374,-3.8685 0,-1.86572 -0.60352,-3.26481 -1.81073,-4.19767 -1.15237,-0.93286 -2.90833,-1.3994 -5.26791,-1.3994 -0.38412,0 -1.04272,0.0546 -1.97559,0.16433 -0.93287,0.10975 -1.75572,0.16485 -2.46909,0.16485 -3.29246,0 -5.43255,-0.65861 -6.42029,-1.97559 -0.98773,-1.31698 -1.48156,-4.52712 -1.48156,-9.63042 V 120.9921 c 0,-2.90834 -0.41195,-4.77396 -1.23507,-5.59708 -0.76824,-0.87798 -2.27702,-1.31723 -4.52685,-1.31723 -0.16463,0 -0.63117,0.0278 -1.3994,0.0827 -3.8412,0.27438 -7.68214,0.41135 -11.52333,0.41135 -1.59135,0 -3.26542,-0.0824 -5.0214,-0.24702 -1.75598,-0.16462 -2.66125,-0.24701 -2.71611,-0.24701 z m -592.87853,0.90589 c -2.3596,0 -4.14284,0.52112 -5.35006,1.56373 -1.15236,1.04261 -1.72857,2.63377 -1.72857,4.77387 0,1.86572 0.57621,3.34772 1.72857,4.4452 1.15234,1.09748 2.66113,1.6459 4.52684,1.6459 0.65849,0 2.08539,-0.16479 4.28037,-0.49403 2.24984,-0.32925 4.14327,-0.49351 5.67976,-0.49351 2.85345,0 4.96573,0.79558 6.33759,2.38694 1.37187,1.59135 2.05775,4.06049 2.05775,7.40781 v 72.10464 c 0,3.34733 -0.71319,5.84428 -2.1399,7.4905 -1.37186,1.64623 -3.45686,2.46962 -6.25544,2.46962 -1.53649,0 -3.42992,-0.19207 -5.67976,-0.5762 -2.19498,-0.38411 -3.62188,-0.57619 -4.28037,-0.57619 -1.86571,0 -3.3745,0.54841 -4.52684,1.6459 -1.15236,1.09748 -1.72857,2.55167 -1.72857,4.36252 0,2.19497 0.57621,3.81394 1.72857,4.85655 1.20722,1.04261 2.99046,1.56373 5.35006,1.56373 0.0549,0 2.88087,-0.24666 8.47802,-0.74052 5.65206,-0.49387 11.33184,-0.74104 17.03877,-0.74104 5.26791,0 10.64543,0.24717 16.13286,0.74104 5.54228,0.49386 8.42338,0.74052 8.64288,0.74052 2.35961,0 4.11554,-0.52112 5.26791,-1.56373 1.20721,-1.04261 1.81073,-2.66158 1.81073,-4.85655 0,-1.75597 -0.60352,-3.18235 -1.81073,-4.27984 -1.15237,-1.15236 -2.68896,-1.72858 -4.60955,-1.72858 -0.65849,0 -2.11267,0.19208 -4.36252,0.57619 -2.19496,0.38413 -4.06062,0.5762 -5.59708,0.5762 -2.79858,0 -4.8841,-0.7961 -6.25594,-2.38745 -1.31699,-1.64623 -1.97509,-4.17047 -1.97509,-7.57267 v -72.10464 c 0,-3.34732 0.6581,-5.81646 1.97509,-7.40781 1.37184,-1.59136 3.45736,-2.38694 6.25594,-2.38694 1.53646,0 3.40212,0.16426 5.59708,0.49351 2.24985,0.32924 3.70403,0.49403 4.36252,0.49403 1.92059,0 3.45718,-0.54842 4.60955,-1.6459 1.20721,-1.15236 1.81073,-2.63436 1.81073,-4.4452 0,-2.1401 -0.60352,-3.73126 -1.81073,-4.77387 -1.15237,-1.04261 -2.9083,-1.56373 -5.26791,-1.56373 -0.38412,0 -3.32031,0.24665 -8.80774,0.74052 -5.4874,0.49387 -10.80984,0.74104 -15.968,0.74104 -5.43256,0 -10.97486,-0.24717 -16.62689,-0.74104 -5.65206,-0.49387 -8.61552,-0.74052 -8.8899,-0.74052 z m 449.797858,3.36258 c -1.755973,0 -3.182876,0.49383 -4.280357,1.48157 -1.097487,0.98774 -1.645897,2.22256 -1.645897,3.70416 v 18.69654 c 0,0.93286 -0.192071,1.59147 -0.576191,1.97559 -0.384119,0.38412 -1.042728,0.57619 -1.975591,0.57619 h -6.420278 c -2.085221,0 -3.593994,0.46602 -4.526857,1.39888 -0.987734,0.87799 -1.482079,2.30488 -1.482079,4.28036 0,1.9206 0.466537,3.3475 1.399397,4.28036 0.877988,0.87798 2.304888,1.31671 4.28036,1.31671 h 6.420279 c 0.877988,0 1.481497,0.27447 1.810742,0.82321 0.384119,0.49386 0.576191,1.78328 0.576191,3.86849 v 41.48533 c 0,9.82249 1.755947,16.81897 5.267896,20.98941 3.51195,4.11557 9.328719,6.17327 17.450097,6.17327 8.17626,0 14.40446,-2.63391 18.68465,-7.90184 4.28019,-5.26793 6.42028,-12.86845 6.42028,-22.80068 0,-4.28019 -0.52113,-7.24316 -1.56373,-8.88938 -1.04261,-1.7011 -2.82637,-2.55178 -5.35058,-2.55178 -1.86572,0 -3.29211,0.6859 -4.27984,2.05776 -0.93287,1.31698 -1.3994,3.265 -1.3994,5.84408 0,0.93286 0.0546,2.35976 0.16433,4.28036 0.10975,1.9206 0.16485,3.34749 0.16485,4.28036 0,4.55456 -1.01495,8.06646 -3.04529,10.53579 -2.03035,2.46934 -4.88415,3.70365 -8.56072,3.70365 -4.28019,0 -7.243153,-1.28941 -8.88938,-3.8685 -1.646222,-2.57908 -2.469616,-8.56012 -2.469616,-17.9436 v -35.39423 c 0,-1.75597 0.164783,-2.96299 0.494028,-3.62148 0.384119,-0.71336 1.014923,-1.07022 1.892906,-1.07022 h 16.050702 c 2.41446,0 4.22551,-0.46602 5.43274,-1.39888 1.20723,-0.93286 1.81074,-2.38706 1.81074,-4.36252 0,-1.75598 -0.57621,-3.10049 -1.72857,-4.03335 -1.09748,-0.98773 -2.66136,-1.48156 -4.6917,-1.48156 H 98.214158 c -1.042607,0 -1.7007,-0.16478 -1.975073,-0.49403 -0.27437,-0.32924 -0.411861,-1.17993 -0.411861,-2.55178 v -18.20251 c 0,-1.42672 -0.603509,-2.63375 -1.810742,-3.62148 -1.152358,-1.04262 -2.60655,-1.56425 -4.362524,-1.56425 z m 412.973752,5.69165 c 10.70046,0 18.27318,1.67355 22.718,5.02088 4.49969,3.34732 6.74946,8.97202 6.74946,16.8739 0,7.73726 -2.55153,13.16988 -7.65484,16.29772 -5.04841,3.07295 -14.34978,4.60902 -27.90373,4.60902 -4.71916,0 -7.70995,-0.30176 -8.97204,-0.90538 -1.20724,-0.65849 -1.81076,-1.97518 -1.81076,-3.95066 v -28.56208 c 0,-3.95094 0.85069,-6.50248 2.5518,-7.65483 1.75596,-1.15236 6.52997,-1.72857 14.32211,-1.72857 z m 208.579,16.82584 c -9.3835,0 -16.81874,2.19519 -22.30612,6.58513 -5.48743,4.38993 -8.23103,10.28909 -8.23103,17.69711 0,6.53003 1.86563,11.68819 5.59708,15.47451 3.78632,3.78632 9.84972,6.5572 18.1906,8.31319 3.18273,0.65848 7.46289,1.31709 12.84058,1.97559 5.43253,0.65848 8.83475,1.39949 10.20659,2.2226 1.97548,1.15236 3.48477,2.55145 4.52739,4.19767 1.04259,1.64623 1.56371,3.40218 1.56371,5.2679 0,4.60943 -1.67354,8.20371 -5.02086,10.7828 -3.29245,2.57909 -7.95679,3.8685 -13.99297,3.8685 -7.90183,0 -14.18518,-1.56387 -18.84947,-4.6917 -4.66431,-3.12783 -6.99648,-7.29833 -6.99648,-12.51138 v -2.38694 c 0,-3.01808 -0.38415,-5.13088 -1.15239,-6.33811 -0.76822,-1.26211 -2.05764,-1.89291 -3.8685,-1.89291 -1.59134,0 -2.96315,0.60351 -4.11549,1.81074 -1.09749,1.20724 -1.64642,2.63414 -1.64642,4.28036 0,0.54874 0.16478,2.24959 0.49403,5.10305 0.38412,2.79859 0.57618,5.35012 0.57618,7.65483 0,0.98774 -0.19206,2.96356 -0.57618,5.92677 -0.32925,2.96321 -0.49403,5.43234 -0.49403,7.40782 0,2.24984 0.41142,3.86881 1.23454,4.85655 0.82312,1.04261 2.16763,1.56373 4.03336,1.56373 1.81084,0 3.18262,-0.57622 4.11549,-1.72858 0.93287,-1.15236 1.39941,-2.82592 1.39941,-5.02088 v -2.2226 c 2.68883,2.85345 6.20072,5.04864 10.53579,6.58512 4.38994,1.59135 9.24634,2.38694 14.56914,2.38694 9.65785,0 17.44994,-2.52424 23.37634,-7.57267 5.92643,-5.1033 8.88989,-11.74294 8.88989,-19.9192 0,-6.47515 -2.05769,-11.46852 -6.17326,-14.98048 -4.11556,-3.56682 -10.70062,-6.03647 -19.75487,-7.40833 -1.92059,-0.32924 -4.55451,-0.631 -7.90184,-0.90537 -7.95676,-0.76824 -13.2797,-2.22243 -15.96853,-4.36252 -1.20724,-0.87799 -2.13979,-2.00262 -2.79828,-3.37448 -0.60362,-1.37185 -0.90588,-2.93624 -0.90588,-4.69222 0,-4.28018 1.64626,-7.62729 4.93871,-10.04176 3.29245,-2.41446 7.84709,-3.62148 13.66377,-3.62148 6.25565,0 11.16716,1.42639 14.73399,4.27984 3.62169,2.79859 5.43221,6.64004 5.43221,11.52384 v 2.22209 c 0,2.35959 0.32956,4.00585 0.98806,4.93871 0.71337,0.87799 1.9204,1.31724 3.62148,1.31724 1.64624,0 2.85377,-0.43925 3.62202,-1.31724 0.82309,-0.93286 1.23454,-2.35924 1.23454,-4.27984 v -4.6917 c 0,-6.53003 0.30176,-12.48428 0.90538,-17.86196 0.0549,-0.65849 0.0822,-1.06992 0.0822,-1.23455 0,-1.37185 -0.43873,-2.57888 -1.31672,-3.62148 -0.82309,-1.04262 -1.83857,-1.56425 -3.04581,-1.56425 -1.37183,0 -2.44189,0.46654 -3.21013,1.3994 -0.76822,0.93287 -1.1524,2.19499 -1.1524,3.78633 v 1.3994 c 0.0549,0.27437 0.10999,0.54883 0.16487,0.82321 -2.85346,-2.46934 -6.14598,-4.30768 -9.87743,-5.51491 -3.6766,-1.26211 -7.73739,-1.89343 -12.18221,-1.89343 z m -530.46322,1.19993 c -11.63333,0 -20.8796,3.95114 -27.73888,11.85302 -6.80441,7.84702 -10.20661,18.43779 -10.20661,31.77222 0,13.38931 3.4022,24.03467 10.20661,31.93655 6.85928,7.84702 16.10555,11.77086 27.73888,11.77086 6.53003,0 12.12691,-1.04275 16.79122,-3.12797 4.71919,-2.08522 8.78,-5.32265 12.1822,-9.71259 2.19497,-2.90833 3.95092,-5.81671 5.2679,-8.72505 1.31698,-2.9632 1.97559,-5.43286 1.97559,-7.40833 0,-1.7011 -0.54893,-3.1002 -1.64641,-4.19768 -1.09749,-1.15236 -2.46929,-1.72857 -4.11551,-1.72857 -2.57909,0 -4.71918,2.24977 -6.42029,6.74945 -1.09748,3.01809 -2.14024,5.26786 -3.12797,6.74946 -2.57909,3.67658 -5.45966,6.3383 -8.64236,7.98453 -3.12783,1.64623 -6.99658,2.4691 -11.60602,2.4691 -7.57263,0 -13.66386,-2.7987 -18.2733,-8.39587 -4.55456,-5.59717 -6.83162,-13.03239 -6.83162,-22.30613 v -0.49403 h 50.37418 2.88096 c 3.1827,0 5.3228,-0.54841 6.42028,-1.64589 1.09748,-1.09749 1.64641,-3.26539 1.64641,-6.50297 0,-11.24921 -3.3471,-20.22101 -10.04176,-26.91566 -6.69465,-6.74953 -15.63917,-10.12445 -26.8335,-10.12445 z m -164.152772,1.15238 c -6.036162,0 -11.2489017,1.12514 -15.63883814,3.37499 -4.38993676,2.24984 -8.56043816,5.95381 -12.51138086,11.11198 v -6.17326 c 0,-2.85346 -0.384146,-4.71909 -1.152384,-5.59708 -0.713365,-0.87798 -2.140265,-1.31723 -4.280359,-1.31723 -0.109749,0 -0.548477,0.0273 -1.316716,0.0822 -3.566823,0.27436 -7.051425,0.41186 -10.453624,0.41186 -1.371857,0 -2.853338,-0.0824 -4.44469,-0.24702 -1.591353,-0.16462 -2.524424,-0.24701 -2.798797,-0.24701 -2.140093,0 -3.813649,0.49383 -5.020882,1.48156 -1.152358,0.93286 -1.728575,2.27738 -1.728575,4.03335 0,1.53648 0.493826,2.66162 1.481563,3.37499 0.987735,0.65848 2.578899,0.98753 4.773869,0.98753 h 5.185728 c 3.12783,0 5.240631,0.79559 6.338115,2.38694 1.152358,1.59135 1.728577,4.74691 1.728577,9.46609 v 40.74376 c 0,4.38994 -0.548928,7.18865 -1.646412,8.39587 -1.042609,1.15236 -3.182701,1.72858 -6.42028,1.72858 -0.438994,0 -1.152184,-0.0824 -2.139921,-0.24702 -0.987735,-0.16462 -1.783318,-0.24701 -2.386934,-0.24701 -2.304716,0 -4.033371,0.49383 -5.18573,1.48157 -1.152358,0.93286 -1.728575,2.35975 -1.728575,4.28035 0,1.81085 0.466534,3.10026 1.399397,3.8685 0.987734,0.76824 2.66129,1.15239 5.020881,1.15239 0.603618,0 2.908491,-0.21936 6.914306,-0.65836 4.005819,-0.43899 7.709783,-0.65836 11.111984,-0.65836 4.060692,0 8.285776,0.21937 12.6757121,0.65836 4.4448111,0.439 6.8320747,0.65836 7.16132,0.65836 1.9754713,0 3.4569541,-0.43873 4.4446899,-1.31672 0.9877356,-0.87799 1.4815632,-2.16791 1.4815632,-3.86901 0,-1.9206 -0.548927,-3.31969 -1.646411,-4.19768 -1.0426099,-0.93287 -2.6883574,-1.3994 -4.93819985,-1.3994 -0.93286125,0 -2.05800645,0.0824 -3.37498775,0.24701 -1.3169807,0.16463 -2.1403715,0.24702 -2.4696166,0.24702 -2.2498428,0 -3.7859083,-0.60351 -4.6090209,-1.81074 -0.7682391,-1.26211 -1.1523841,-3.62208 -1.1523841,-7.07916 V 191.286 c 0,-13.11494 2.0304097,-22.69025 6.0911005,-28.72641 4.0606914,-6.03617 10.453159,-9.05423 19.1781575,-9.05423 7.737263,0 13.279566,2.19467 16.626891,6.58461 3.402201,4.33507 5.103564,11.57873 5.103564,21.73045 v 24.11688 c 0,4.93868 -0.384146,8.06642 -1.152385,9.38341 -0.713361,1.2621 -2.222653,1.89342 -4.52737,1.89342 -0.384119,0 -1.262094,-0.0824 -2.633948,-0.24702 -1.371856,-0.16462 -2.524292,-0.24701 -3.457154,-0.24701 -2.194968,0 -3.813424,0.46653 -4.856034,1.3994 -1.042609,0.87799 -1.564245,2.27708 -1.564245,4.19768 0,1.7011 0.494344,2.99102 1.48208,3.86901 1.04261,0.87799 2.524092,1.31672 4.44469,1.31672 0.329245,0 2.688701,-0.21936 7.078636,-0.65836 4.389938,-0.43899 8.587729,-0.65836 12.593547,-0.65836 3.402201,0 7.106166,0.21937 11.111984,0.65836 4.06069,0.439 6.392855,0.65836 6.996473,0.65836 2.359591,0 4.060954,-0.38415 5.103563,-1.15239 1.097484,-0.82311 1.645894,-2.11252 1.645894,-3.8685 0,-1.9206 -0.603509,-3.34749 -1.810742,-4.28035 -1.207233,-0.98774 -2.963177,-1.48157 -5.267894,-1.48157 -0.38412,0 -1.042731,0.0824 -1.975591,0.24701 -0.932863,0.16463 -1.755735,0.24702 -2.469099,0.24702 -3.182705,0 -5.295506,-0.57622 -6.338115,-1.72858 -1.042609,-1.15235 -1.56373,-4.44488 -1.56373,-9.87743 v -26.66866 c 0,-12.62106 -2.579336,-21.73036 -7.737512,-27.32753 -5.103299,-5.59717 -13.361913,-8.39587 -24.775748,-8.39587 z m 164.317102,9.63042 c 6.74953,0 12.20944,2.08551 16.37988,6.25595 4.22531,4.17044 6.33811,9.60306 6.33811,16.29771 v 1.06971 h -46.50569 c 0.71337,-7.29827 3.18251,-13.05994 7.40782,-17.28525 4.28019,-4.22532 9.7401,-6.33812 16.37988,-6.33812 z" style="fill:#ffffff;stroke:none" />
</svg>