<?xml version="1.0" encoding="UTF-8" standalone="no"?>
<!DOCTYPE svg PUBLIC "-//W3C//DTD SVG 1.1//EN"
 "http://www.w3.org/Graphics/SVG/1.1/DTD/svg11.dtd">
<!-- Generated by graphviz version 2.42.3 (0)
 -->
<!-- Title: G Pages: 1 -->
<svg width="1226pt" height="318pt"
 viewBox="0.00 0.00 1225.59 318.00" xmlns="http://www.w3.org/2000/svg" xmlns:xlink="http://www.w3.org/1999/xlink">
<g id="graph0" class="graph" transform="scale(1 1) rotate(0) translate(4 314)">
<title>G</title>
<polygon fill="white" stroke="transparent" points="-4,4 -4,-314 1221.59,-314 1221.59,4 -4,4"/>
<g id="clust3" class="cluster">
<title>cluster_navd</title>
<polygon fill="none" stroke="black" points="42.69,-8 42.69,-83 519.69,-83 519.69,-8 42.69,-8"/>
<text text-anchor="middle" x="281.19" y="-67.8" font-family="Times,serif" font-size="14.00">Navigation Directives</text>
</g>
<g id="clust4" class="cluster">
<title>cluster_docd</title>
<polygon fill="none" stroke="black" points="660.69,-8 660.69,-83 1043.69,-83 1043.69,-8 660.69,-8"/>
<text text-anchor="middle" x="852.19" y="-67.8" font-family="Times,serif" font-size="14.00">Document Directives</text>
</g>
<g id="clust1" class="cluster">
<title>cluster_repd</title>
<polygon fill="none" stroke="black" points="133.69,-227 133.69,-302 383.69,-302 383.69,-227 133.69,-227"/>
<text text-anchor="middle" x="258.69" y="-286.8" font-family="Times,serif" font-size="14.00">Reporting Directives</text>
</g>
<!-- report&#45;uri -->
<g id="node1" class="node">
<title>report&#45;uri</title>
<ellipse fill="lightblue" stroke="black" cx="319.69" cy="-253" rx="55.79" ry="18"/>
<text text-anchor="middle" x="319.69" y="-249.3" font-family="Times,serif" font-size="14.00">report&#45;uri</text>
</g>
<!-- report&#45;to -->
<g id="node2" class="node">
<title>report&#45;to</title>
<ellipse fill="lightblue" stroke="black" cx="193.69" cy="-253" rx="51.99" ry="18"/>
<text text-anchor="middle" x="193.69" y="-249.3" font-family="Times,serif" font-size="14.00">report&#45;to</text>
</g>
<!-- form&#45;action -->
<g id="node3" class="node">
<title>form&#45;action</title>
<ellipse fill="lightblue" stroke="black" cx="447.69" cy="-34" rx="63.89" ry="18"/>
<text text-anchor="middle" x="447.69" y="-30.3" font-family="Times,serif" font-size="14.00">form&#45;action</text>
</g>
<!-- frame&#45;ancestors -->
<g id="node4" class="node">
<title>frame&#45;ancestors</title>
<ellipse fill="lightblue" stroke="black" cx="280.69" cy="-34" rx="85.59" ry="18"/>
<text text-anchor="middle" x="280.69" y="-30.3" font-family="Times,serif" font-size="14.00">frame&#45;ancestors</text>
</g>
<!-- navigate&#45;to -->
<g id="node5" class="node">
<title>navigate&#45;to</title>
<ellipse fill="lightblue" stroke="black" cx="113.69" cy="-34" rx="63.09" ry="18"/>
<text text-anchor="middle" x="113.69" y="-30.3" font-family="Times,serif" font-size="14.00">navigate&#45;to</text>
</g>
<!-- default&#45;src -->
<g id="node6" class="node">
<title>default&#45;src</title>
<ellipse fill="lightblue" stroke="black" cx="589.69" cy="-34" rx="60.39" ry="18"/>
<text text-anchor="middle" x="589.69" y="-30.3" font-family="Times,serif" font-size="14.00">default&#45;src</text>
</g>
<!-- base&#45;uri -->
<g id="node7" class="node">
<title>base&#45;uri</title>
<ellipse fill="lightblue" stroke="black" cx="987.69" cy="-34" rx="48.19" ry="18"/>
<text text-anchor="middle" x="987.69" y="-30.3" font-family="Times,serif" font-size="14.00">base&#45;uri</text>
</g>
<!-- plugin&#45;types -->
<g id="node8" class="node">
<title>plugin&#45;types</title>
<ellipse fill="lightblue" stroke="black" cx="853.69" cy="-34" rx="68.49" ry="18"/>
<text text-anchor="middle" x="853.69" y="-30.3" font-family="Times,serif" font-size="14.00">plugin&#45;types</text>
</g>
<!-- sandbox -->
<g id="node9" class="node">
<title>sandbox</title>
<ellipse fill="lightblue" stroke="black" cx="717.69" cy="-34" rx="49.29" ry="18"/>
<text text-anchor="middle" x="717.69" y="-30.3" font-family="Times,serif" font-size="14.00">sandbox</text>
</g>
<!-- connect&#45;src -->
<g id="node10" class="node">
<title>connect&#45;src</title>
<ellipse fill="none" stroke="black" cx="63.69" cy="-109" rx="63.89" ry="18"/>
<text text-anchor="middle" x="63.69" y="-105.3" font-family="Times,serif" font-size="14.00">connect&#45;src</text>
</g>
<!-- connect&#45;src&#45;&gt;default&#45;src -->
<g id="edge1" class="edge">
<title>connect&#45;src&#45;&gt;default&#45;src</title>
<path fill="none" stroke="black" d="M111.16,-96.95C125.11,-93.7 136.69,-91 136.69,-91 136.69,-91 523.69,-83 523.69,-83 523.69,-83 542.03,-69.67 559.37,-57.06"/>
<polygon fill="black" stroke="black" points="561.69,-59.7 567.72,-50.98 557.57,-54.03 561.69,-59.7"/>
</g>
<!-- manifest&#45;src -->
<g id="node11" class="node">
<title>manifest&#45;src</title>
<ellipse fill="none" stroke="black" cx="213.69" cy="-109" rx="68.49" ry="18"/>
<text text-anchor="middle" x="213.69" y="-105.3" font-family="Times,serif" font-size="14.00">manifest&#45;src</text>
</g>
<!-- manifest&#45;src&#45;&gt;default&#45;src -->
<g id="edge2" class="edge">
<title>manifest&#45;src&#45;&gt;default&#45;src</title>
<path fill="none" stroke="black" d="M264.2,-96.85C278.71,-93.65 290.69,-91 290.69,-91 290.69,-91 523.69,-83 523.69,-83 523.69,-83 542.03,-69.67 559.37,-57.06"/>
<polygon fill="black" stroke="black" points="561.69,-59.7 567.72,-50.98 557.57,-54.03 561.69,-59.7"/>
</g>
<!-- prefetch&#45;src -->
<g id="node12" class="node">
<title>prefetch&#45;src</title>
<ellipse fill="none" stroke="black" cx="366.69" cy="-109" rx="66.89" ry="18"/>
<text text-anchor="middle" x="366.69" y="-105.3" font-family="Times,serif" font-size="14.00">prefetch&#45;src</text>
</g>
<!-- prefetch&#45;src&#45;&gt;default&#45;src -->
<g id="edge3" class="edge">
<title>prefetch&#45;src&#45;&gt;default&#45;src</title>
<path fill="none" stroke="black" d="M416.54,-96.85C430.86,-93.65 442.69,-91 442.69,-91 442.69,-91 523.69,-83 523.69,-83 523.69,-83 542.03,-69.67 559.37,-57.06"/>
<polygon fill="black" stroke="black" points="561.69,-59.7 567.72,-50.98 557.57,-54.03 561.69,-59.7"/>
</g>
<!-- script&#45;src&#45;attr -->
<g id="node13" class="node">
<title>script&#45;src&#45;attr</title>
<ellipse fill="none" stroke="black" cx="245.69" cy="-181" rx="75.29" ry="18"/>
<text text-anchor="middle" x="245.69" y="-177.3" font-family="Times,serif" font-size="14.00">script&#45;src&#45;attr</text>
</g>
<!-- script&#45;src -->
<g id="node14" class="node">
<title>script&#45;src</title>
<ellipse fill="none" stroke="black" cx="506.69" cy="-109" rx="54.69" ry="18"/>
<text text-anchor="middle" x="506.69" y="-105.3" font-family="Times,serif" font-size="14.00">script&#45;src</text>
</g>
<!-- script&#45;src&#45;attr&#45;&gt;script&#45;src -->
<g id="edge4" class="edge">
<title>script&#45;src&#45;attr&#45;&gt;script&#45;src</title>
<path fill="none" stroke="black" d="M293.87,-167.08C339.84,-154.75 408.85,-136.24 455.72,-123.67"/>
<polygon fill="black" stroke="black" points="456.91,-126.97 465.67,-121 455.1,-120.21 456.91,-126.97"/>
</g>
<!-- script&#45;src&#45;&gt;default&#45;src -->
<g id="edge5" class="edge">
<title>script&#45;src&#45;&gt;default&#45;src</title>
<path fill="none" stroke="black" d="M519.77,-91.44C530.14,-81.33 544.79,-68.29 558.08,-57.29"/>
<polygon fill="black" stroke="black" points="560.57,-59.77 566.12,-50.75 556.15,-54.34 560.57,-59.77"/>
</g>
<!-- script&#45;src&#45;&gt;default&#45;src -->
<g id="edge16" class="edge">
<title>script&#45;src&#45;&gt;default&#45;src</title>
<path fill="none" stroke="green" d="M529.93,-92.52C542.27,-82.7 557.18,-69.8 569.1,-58.71"/>
<polygon fill="green" stroke="green" points="571.61,-61.16 576.45,-51.73 566.79,-56.08 571.61,-61.16"/>
</g>
<!-- script&#45;src&#45;elem -->
<g id="node15" class="node">
<title>script&#45;src&#45;elem</title>
<ellipse fill="none" stroke="black" cx="418.69" cy="-181" rx="79.89" ry="18"/>
<text text-anchor="middle" x="418.69" y="-177.3" font-family="Times,serif" font-size="14.00">script&#45;src&#45;elem</text>
</g>
<!-- script&#45;src&#45;elem&#45;&gt;script&#45;src -->
<g id="edge6" class="edge">
<title>script&#45;src&#45;elem&#45;&gt;script&#45;src</title>
<path fill="none" stroke="black" d="M439.55,-163.41C451.22,-154.12 465.94,-142.42 478.61,-132.34"/>
<polygon fill="black" stroke="black" points="480.95,-134.95 486.6,-125.99 476.59,-129.47 480.95,-134.95"/>
</g>
<!-- style&#45;src&#45;attr -->
<g id="node16" class="node">
<title>style&#45;src&#45;attr</title>
<ellipse fill="none" stroke="black" cx="705.69" cy="-181" rx="70.69" ry="18"/>
<text text-anchor="middle" x="705.69" y="-177.3" font-family="Times,serif" font-size="14.00">style&#45;src&#45;attr</text>
</g>
<!-- style&#45;src -->
<g id="node17" class="node">
<title>style&#45;src</title>
<ellipse fill="none" stroke="black" cx="667.69" cy="-109" rx="50.09" ry="18"/>
<text text-anchor="middle" x="667.69" y="-105.3" font-family="Times,serif" font-size="14.00">style&#45;src</text>
</g>
<!-- style&#45;src&#45;attr&#45;&gt;style&#45;src -->
<g id="edge7" class="edge">
<title>style&#45;src&#45;attr&#45;&gt;style&#45;src</title>
<path fill="none" stroke="black" d="M696.5,-163.05C692.06,-154.89 686.65,-144.91 681.71,-135.82"/>
<polygon fill="black" stroke="black" points="684.66,-133.91 676.81,-126.79 678.5,-137.25 684.66,-133.91"/>
</g>
<!-- style&#45;src&#45;&gt;default&#45;src -->
<g id="edge8" class="edge">
<title>style&#45;src&#45;&gt;default&#45;src</title>
<path fill="none" stroke="black" d="M650.38,-91.8C639.85,-81.94 626.23,-69.19 614.56,-58.27"/>
<polygon fill="black" stroke="black" points="616.92,-55.69 607.23,-51.41 612.14,-60.8 616.92,-55.69"/>
</g>
<!-- style&#45;src&#45;elem -->
<g id="node18" class="node">
<title>style&#45;src&#45;elem</title>
<ellipse fill="none" stroke="black" cx="869.69" cy="-181" rx="75.29" ry="18"/>
<text text-anchor="middle" x="869.69" y="-177.3" font-family="Times,serif" font-size="14.00">style&#45;src&#45;elem</text>
</g>
<!-- style&#45;src&#45;elem&#45;&gt;style&#45;src -->
<g id="edge9" class="edge">
<title>style&#45;src&#45;elem&#45;&gt;style&#45;src</title>
<path fill="none" stroke="black" d="M828.82,-165.83C795.03,-154.13 747.13,-137.53 712.35,-125.47"/>
<polygon fill="black" stroke="black" points="713.05,-122.01 702.46,-122.05 710.76,-128.63 713.05,-122.01"/>
</g>
<!-- font&#45;src -->
<g id="node19" class="node">
<title>font&#45;src</title>
<ellipse fill="none" stroke="black" cx="781.69" cy="-109" rx="46.29" ry="18"/>
<text text-anchor="middle" x="781.69" y="-105.3" font-family="Times,serif" font-size="14.00">font&#45;src</text>
</g>
<!-- font&#45;src&#45;&gt;default&#45;src -->
<g id="edge10" class="edge">
<title>font&#45;src&#45;&gt;default&#45;src</title>
<path fill="none" stroke="black" d="M746.55,-97.14C735.77,-93.81 726.69,-91 726.69,-91 726.69,-91 656.69,-83 656.69,-83 656.69,-83 638.08,-69.67 620.48,-57.06"/>
<polygon fill="black" stroke="black" points="622.17,-53.96 612,-50.98 618.1,-59.65 622.17,-53.96"/>
</g>
<!-- image&#45;src -->
<g id="node20" class="node">
<title>image&#45;src</title>
<ellipse fill="none" stroke="black" cx="901.69" cy="-109" rx="55.79" ry="18"/>
<text text-anchor="middle" x="901.69" y="-105.3" font-family="Times,serif" font-size="14.00">image&#45;src</text>
</g>
<!-- image&#45;src&#45;&gt;default&#45;src -->
<g id="edge11" class="edge">
<title>image&#45;src&#45;&gt;default&#45;src</title>
<path fill="none" stroke="black" d="M859.79,-97.04C847.22,-93.75 836.69,-91 836.69,-91 836.69,-91 656.69,-83 656.69,-83 656.69,-83 638.08,-69.67 620.48,-57.06"/>
<polygon fill="black" stroke="black" points="622.17,-53.96 612,-50.98 618.1,-59.65 622.17,-53.96"/>
</g>
<!-- media&#45;src -->
<g id="node21" class="node">
<title>media&#45;src</title>
<ellipse fill="none" stroke="black" cx="1031.69" cy="-109" rx="55.79" ry="18"/>
<text text-anchor="middle" x="1031.69" y="-105.3" font-family="Times,serif" font-size="14.00">media&#45;src</text>
</g>
<!-- media&#45;src&#45;&gt;default&#45;src -->
<g id="edge12" class="edge">
<title>media&#45;src&#45;&gt;default&#45;src</title>
<path fill="none" stroke="black" d="M989.79,-97.04C977.22,-93.75 966.69,-91 966.69,-91 966.69,-91 656.69,-83 656.69,-83 656.69,-83 638.08,-69.67 620.48,-57.06"/>
<polygon fill="black" stroke="black" points="622.17,-53.96 612,-50.98 618.1,-59.65 622.17,-53.96"/>
</g>
<!-- object&#45;src -->
<g id="node22" class="node">
<title>object&#45;src</title>
<ellipse fill="none" stroke="black" cx="1161.69" cy="-109" rx="55.79" ry="18"/>
<text text-anchor="middle" x="1161.69" y="-105.3" font-family="Times,serif" font-size="14.00">object&#45;src</text>
</g>
<!-- object&#45;src&#45;&gt;default&#45;src -->
<g id="edge13" class="edge">
<title>object&#45;src&#45;&gt;default&#45;src</title>
<path fill="none" stroke="black" d="M1119.79,-97.04C1107.22,-93.75 1096.69,-91 1096.69,-91 1096.69,-91 656.69,-83 656.69,-83 656.69,-83 638.08,-69.67 620.48,-57.06"/>
<polygon fill="black" stroke="black" points="622.17,-53.96 612,-50.98 618.1,-59.65 622.17,-53.96"/>
</g>
<!-- worker&#45;src -->
<g id="node23" class="node">
<title>worker&#45;src</title>
<ellipse fill="none" stroke="black" cx="499.69" cy="-253" rx="60.39" ry="18"/>
<text text-anchor="middle" x="499.69" y="-249.3" font-family="Times,serif" font-size="14.00">worker&#45;src</text>
</g>
<!-- child&#45;src -->
<g id="node24" class="node">
<title>child&#45;src</title>
<ellipse fill="none" stroke="black" cx="566.69" cy="-181" rx="50.09" ry="18"/>
<text text-anchor="middle" x="566.69" y="-177.3" font-family="Times,serif" font-size="14.00">child&#45;src</text>
</g>
<!-- worker&#45;src&#45;&gt;child&#45;src -->
<g id="edge14" class="edge">
<title>worker&#45;src&#45;&gt;child&#45;src</title>
<path fill="none" stroke="green" d="M515.57,-235.41C524,-226.61 534.51,-215.63 543.8,-205.92"/>
<polygon fill="green" stroke="green" points="546.54,-208.11 550.93,-198.47 541.49,-203.27 546.54,-208.11"/>
</g>
<!-- child&#45;src&#45;&gt;default&#45;src -->
<g id="edge18" class="edge">
<title>child&#45;src&#45;&gt;default&#45;src</title>
<path fill="none" stroke="blue" d="M569.42,-162.8C573.37,-137.94 580.69,-91.74 585.38,-62.23"/>
<polygon fill="blue" stroke="blue" points="588.86,-62.61 586.97,-52.18 581.95,-61.51 588.86,-62.61"/>
</g>
<!-- child&#45;src&#45;&gt;script&#45;src -->
<g id="edge15" class="edge">
<title>child&#45;src&#45;&gt;script&#45;src</title>
<path fill="none" stroke="green" d="M552.48,-163.41C545,-154.69 535.7,-143.85 527.44,-134.21"/>
<polygon fill="green" stroke="green" points="529.98,-131.78 520.81,-126.47 524.66,-136.34 529.98,-131.78"/>
</g>
<!-- frame&#45;src -->
<g id="node25" class="node">
<title>frame&#45;src</title>
<ellipse fill="none" stroke="black" cx="633.69" cy="-253" rx="55.49" ry="18"/>
<text text-anchor="middle" x="633.69" y="-249.3" font-family="Times,serif" font-size="14.00">frame&#45;src</text>
</g>
<!-- frame&#45;src&#45;&gt;child&#45;src -->
<g id="edge17" class="edge">
<title>frame&#45;src&#45;&gt;child&#45;src</title>
<path fill="none" stroke="blue" d="M617.82,-235.41C609.39,-226.61 598.88,-215.63 589.59,-205.92"/>
<polygon fill="blue" stroke="blue" points="591.9,-203.27 582.46,-198.47 586.84,-208.11 591.9,-203.27"/>
</g>
</g>
</svg>
