<?xml version="1.0" encoding="UTF-8" standalone="no"?>
<!DOCTYPE svg PUBLIC "-//W3C//DTD SVG 1.1//EN"
 "http://www.w3.org/Graphics/SVG/1.1/DTD/svg11.dtd">
<!-- Generated by graphviz version 2.42.3 (0)
 -->
<!-- Title: %3 Pages: 1 -->
<svg width="1226pt" height="260pt"
 viewBox="0.00 0.00 1225.59 260.00" xmlns="http://www.w3.org/2000/svg" xmlns:xlink="http://www.w3.org/1999/xlink">
<g id="graph0" class="graph" transform="scale(1 1) rotate(0) translate(4 256)">
<title>%3</title>
<polygon fill="white" stroke="transparent" points="-4,4 -4,-256 1221.59,-256 1221.59,4 -4,4"/>
<!-- base&#45;uri -->
<g id="node1" class="node">
<title>base&#45;uri</title>
<ellipse fill="lightblue" stroke="black" cx="128.69" cy="-18" rx="48.19" ry="18"/>
<text text-anchor="middle" x="128.69" y="-14.3" font-family="Times,serif" font-size="14.00">base&#45;uri</text>
</g>
<!-- form&#45;action -->
<g id="node2" class="node">
<title>form&#45;action</title>
<ellipse fill="lightblue" stroke="black" cx="258.69" cy="-18" rx="63.89" ry="18"/>
<text text-anchor="middle" x="258.69" y="-14.3" font-family="Times,serif" font-size="14.00">form&#45;action</text>
</g>
<!-- frame&#45;ancestors -->
<g id="node3" class="node">
<title>frame&#45;ancestors</title>
<ellipse fill="lightblue" stroke="black" cx="425.69" cy="-18" rx="85.59" ry="18"/>
<text text-anchor="middle" x="425.69" y="-14.3" font-family="Times,serif" font-size="14.00">frame&#45;ancestors</text>
</g>
<!-- default&#45;src -->
<g id="node4" class="node">
<title>default&#45;src</title>
<ellipse fill="lightblue" stroke="black" cx="589.69" cy="-18" rx="60.39" ry="18"/>
<text text-anchor="middle" x="589.69" y="-14.3" font-family="Times,serif" font-size="14.00">default&#45;src</text>
</g>
<!-- plugin&#45;types -->
<g id="node5" class="node">
<title>plugin&#45;types</title>
<ellipse fill="lightblue" stroke="black" cx="736.69" cy="-18" rx="68.49" ry="18"/>
<text text-anchor="middle" x="736.69" y="-14.3" font-family="Times,serif" font-size="14.00">plugin&#45;types</text>
</g>
<!-- report&#45;to -->
<g id="node6" class="node">
<title>report&#45;to</title>
<ellipse fill="lightblue" stroke="black" cx="874.69" cy="-18" rx="51.99" ry="18"/>
<text text-anchor="middle" x="874.69" y="-14.3" font-family="Times,serif" font-size="14.00">report&#45;to</text>
</g>
<!-- report&#45;uri -->
<g id="node7" class="node">
<title>report&#45;uri</title>
<ellipse fill="lightblue" stroke="black" cx="1000.69" cy="-18" rx="55.79" ry="18"/>
<text text-anchor="middle" x="1000.69" y="-14.3" font-family="Times,serif" font-size="14.00">report&#45;uri</text>
</g>
<!-- sandbox -->
<g id="node8" class="node">
<title>sandbox</title>
<ellipse fill="lightblue" stroke="black" cx="1123.69" cy="-18" rx="49.29" ry="18"/>
<text text-anchor="middle" x="1123.69" y="-14.3" font-family="Times,serif" font-size="14.00">sandbox</text>
</g>
<!-- connect&#45;src -->
<g id="node9" class="node">
<title>connect&#45;src</title>
<ellipse fill="none" stroke="black" cx="63.69" cy="-90" rx="63.89" ry="18"/>
<text text-anchor="middle" x="63.69" y="-86.3" font-family="Times,serif" font-size="14.00">connect&#45;src</text>
</g>
<!-- connect&#45;src&#45;&gt;default&#45;src -->
<g id="edge1" class="edge">
<title>connect&#45;src&#45;&gt;default&#45;src</title>
<path fill="none" stroke="black" d="M109.46,-77.35C118.44,-75.34 127.83,-73.44 136.69,-72 305.89,-44.5 351.68,-64.58 520.69,-36 525.81,-35.14 531.11,-34.1 536.39,-32.96"/>
<polygon fill="black" stroke="black" points="537.48,-36.3 546.47,-30.69 535.94,-29.47 537.48,-36.3"/>
</g>
<!-- manifest&#45;src -->
<g id="node10" class="node">
<title>manifest&#45;src</title>
<ellipse fill="none" stroke="black" cx="213.69" cy="-90" rx="68.49" ry="18"/>
<text text-anchor="middle" x="213.69" y="-86.3" font-family="Times,serif" font-size="14.00">manifest&#45;src</text>
</g>
<!-- manifest&#45;src&#45;&gt;default&#45;src -->
<g id="edge2" class="edge">
<title>manifest&#45;src&#45;&gt;default&#45;src</title>
<path fill="none" stroke="black" d="M263.31,-77.57C272.4,-75.61 281.82,-73.67 290.69,-72 392.37,-52.84 419.26,-56.39 520.69,-36 525.63,-35.01 530.75,-33.9 535.87,-32.74"/>
<polygon fill="black" stroke="black" points="536.71,-36.13 545.65,-30.45 535.12,-29.32 536.71,-36.13"/>
</g>
<!-- prefetch&#45;src -->
<g id="node11" class="node">
<title>prefetch&#45;src</title>
<ellipse fill="none" stroke="black" cx="366.69" cy="-90" rx="66.89" ry="18"/>
<text text-anchor="middle" x="366.69" y="-86.3" font-family="Times,serif" font-size="14.00">prefetch&#45;src</text>
</g>
<!-- prefetch&#45;src&#45;&gt;default&#45;src -->
<g id="edge3" class="edge">
<title>prefetch&#45;src&#45;&gt;default&#45;src</title>
<path fill="none" stroke="black" d="M408.64,-75.83C445.86,-64.15 500.29,-47.06 539.75,-34.68"/>
<polygon fill="black" stroke="black" points="540.95,-37.97 549.44,-31.64 538.85,-31.29 540.95,-37.97"/>
</g>
<!-- script&#45;src&#45;attr -->
<g id="node12" class="node">
<title>script&#45;src&#45;attr</title>
<ellipse fill="none" stroke="black" cx="237.69" cy="-162" rx="75.29" ry="18"/>
<text text-anchor="middle" x="237.69" y="-158.3" font-family="Times,serif" font-size="14.00">script&#45;src&#45;attr</text>
</g>
<!-- script&#45;src -->
<g id="node13" class="node">
<title>script&#45;src</title>
<ellipse fill="none" stroke="black" cx="506.69" cy="-90" rx="54.69" ry="18"/>
<text text-anchor="middle" x="506.69" y="-86.3" font-family="Times,serif" font-size="14.00">script&#45;src</text>
</g>
<!-- script&#45;src&#45;attr&#45;&gt;script&#45;src -->
<g id="edge4" class="edge">
<title>script&#45;src&#45;attr&#45;&gt;script&#45;src</title>
<path fill="none" stroke="black" d="M287.01,-148.35C328.55,-137.67 389.53,-121.93 442.69,-108 447,-106.87 451.47,-105.69 455.95,-104.51"/>
<polygon fill="black" stroke="black" points="456.96,-107.86 465.73,-101.92 455.17,-101.1 456.96,-107.86"/>
</g>
<!-- script&#45;src&#45;&gt;default&#45;src -->
<g id="edge5" class="edge">
<title>script&#45;src&#45;&gt;default&#45;src</title>
<path fill="none" stroke="black" d="M520.52,-72.41C530.66,-62.99 544.62,-51.09 557.41,-40.91"/>
<polygon fill="black" stroke="black" points="559.86,-43.43 565.59,-34.51 555.55,-37.91 559.86,-43.43"/>
</g>
<!-- script&#45;src&#45;&gt;default&#45;src -->
<g id="edge16" class="edge">
<title>script&#45;src&#45;&gt;default&#45;src</title>
<path fill="none" stroke="green" d="M530.83,-73.46C542.7,-64.37 556.77,-52.7 568.25,-42.49"/>
<polygon fill="green" stroke="green" points="570.67,-45.02 575.73,-35.71 565.97,-39.84 570.67,-45.02"/>
</g>
<!-- script&#45;src&#45;elem -->
<g id="node14" class="node">
<title>script&#45;src&#45;elem</title>
<ellipse fill="none" stroke="black" cx="410.69" cy="-162" rx="79.89" ry="18"/>
<text text-anchor="middle" x="410.69" y="-158.3" font-family="Times,serif" font-size="14.00">script&#45;src&#45;elem</text>
</g>
<!-- script&#45;src&#45;elem&#45;&gt;script&#45;src -->
<g id="edge6" class="edge">
<title>script&#45;src&#45;elem&#45;&gt;script&#45;src</title>
<path fill="none" stroke="black" d="M433.45,-144.41C446.39,-134.97 462.77,-123.03 476.75,-112.83"/>
<polygon fill="black" stroke="black" points="479.08,-115.47 485.1,-106.75 474.95,-109.81 479.08,-115.47"/>
</g>
<!-- style&#45;src&#45;attr -->
<g id="node15" class="node">
<title>style&#45;src&#45;attr</title>
<ellipse fill="none" stroke="black" cx="697.69" cy="-162" rx="70.69" ry="18"/>
<text text-anchor="middle" x="697.69" y="-158.3" font-family="Times,serif" font-size="14.00">style&#45;src&#45;attr</text>
</g>
<!-- style&#45;src -->
<g id="node16" class="node">
<title>style&#45;src</title>
<ellipse fill="none" stroke="black" cx="667.69" cy="-90" rx="50.09" ry="18"/>
<text text-anchor="middle" x="667.69" y="-86.3" font-family="Times,serif" font-size="14.00">style&#45;src</text>
</g>
<!-- style&#45;src&#45;attr&#45;&gt;style&#45;src -->
<g id="edge7" class="edge">
<title>style&#45;src&#45;attr&#45;&gt;style&#45;src</title>
<path fill="none" stroke="black" d="M690.43,-144.05C687.02,-136.09 682.87,-126.41 679.06,-117.51"/>
<polygon fill="black" stroke="black" points="682.25,-116.09 675.1,-108.28 675.82,-118.85 682.25,-116.09"/>
</g>
<!-- style&#45;src&#45;&gt;default&#45;src -->
<g id="edge8" class="edge">
<title>style&#45;src&#45;&gt;default&#45;src</title>
<path fill="none" stroke="black" d="M649.99,-73.12C639.77,-63.94 626.73,-52.23 615.39,-42.06"/>
<polygon fill="black" stroke="black" points="617.65,-39.38 607.87,-35.31 612.97,-44.59 617.65,-39.38"/>
</g>
<!-- style&#45;src&#45;elem -->
<g id="node17" class="node">
<title>style&#45;src&#45;elem</title>
<ellipse fill="none" stroke="black" cx="861.69" cy="-162" rx="75.29" ry="18"/>
<text text-anchor="middle" x="861.69" y="-158.3" font-family="Times,serif" font-size="14.00">style&#45;src&#45;elem</text>
</g>
<!-- style&#45;src&#45;elem&#45;&gt;style&#45;src -->
<g id="edge9" class="edge">
<title>style&#45;src&#45;elem&#45;&gt;style&#45;src</title>
<path fill="none" stroke="black" d="M821.97,-146.67C789.78,-135.05 744.49,-118.71 711.31,-106.74"/>
<polygon fill="black" stroke="black" points="712.45,-103.43 701.86,-103.33 710.08,-110.01 712.45,-103.43"/>
</g>
<!-- font&#45;src -->
<g id="node18" class="node">
<title>font&#45;src</title>
<ellipse fill="none" stroke="black" cx="781.69" cy="-90" rx="46.29" ry="18"/>
<text text-anchor="middle" x="781.69" y="-86.3" font-family="Times,serif" font-size="14.00">font&#45;src</text>
</g>
<!-- font&#45;src&#45;&gt;default&#45;src -->
<g id="edge10" class="edge">
<title>font&#45;src&#45;&gt;default&#45;src</title>
<path fill="none" stroke="black" d="M749.12,-77.13C718.03,-65.79 670.85,-48.59 635.88,-35.84"/>
<polygon fill="black" stroke="black" points="636.96,-32.51 626.36,-32.37 634.56,-39.08 636.96,-32.51"/>
</g>
<!-- image&#45;src -->
<g id="node19" class="node">
<title>image&#45;src</title>
<ellipse fill="none" stroke="black" cx="901.69" cy="-90" rx="55.79" ry="18"/>
<text text-anchor="middle" x="901.69" y="-86.3" font-family="Times,serif" font-size="14.00">image&#45;src</text>
</g>
<!-- image&#45;src&#45;&gt;default&#45;src -->
<g id="edge11" class="edge">
<title>image&#45;src&#45;&gt;default&#45;src</title>
<path fill="none" stroke="black" d="M860.17,-77.78C852.39,-75.78 844.31,-73.77 836.69,-72 758.5,-53.84 738.05,-53.48 659.69,-36 654.71,-34.89 649.54,-33.7 644.36,-32.48"/>
<polygon fill="black" stroke="black" points="644.99,-29.04 634.45,-30.13 643.37,-35.85 644.99,-29.04"/>
</g>
<!-- media&#45;src -->
<g id="node20" class="node">
<title>media&#45;src</title>
<ellipse fill="none" stroke="black" cx="1031.69" cy="-90" rx="55.79" ry="18"/>
<text text-anchor="middle" x="1031.69" y="-86.3" font-family="Times,serif" font-size="14.00">media&#45;src</text>
</g>
<!-- media&#45;src&#45;&gt;default&#45;src -->
<g id="edge12" class="edge">
<title>media&#45;src&#45;&gt;default&#45;src</title>
<path fill="none" stroke="black" d="M991.32,-77.51C983.21,-75.47 974.72,-73.51 966.69,-72 831.69,-46.56 794.92,-60.26 659.69,-36 654.39,-35.05 648.88,-33.93 643.39,-32.74"/>
<polygon fill="black" stroke="black" points="644.11,-29.31 633.58,-30.52 642.57,-36.14 644.11,-29.31"/>
</g>
<!-- object&#45;src -->
<g id="node21" class="node">
<title>object&#45;src</title>
<ellipse fill="none" stroke="black" cx="1161.69" cy="-90" rx="55.79" ry="18"/>
<text text-anchor="middle" x="1161.69" y="-86.3" font-family="Times,serif" font-size="14.00">object&#45;src</text>
</g>
<!-- object&#45;src&#45;&gt;default&#45;src -->
<g id="edge13" class="edge">
<title>object&#45;src&#45;&gt;default&#45;src</title>
<path fill="none" stroke="black" d="M1121.71,-77.38C1113.49,-75.32 1104.86,-73.39 1096.69,-72 904.59,-39.22 852.08,-67.09 659.69,-36 654.29,-35.13 648.69,-34.06 643.12,-32.88"/>
<polygon fill="black" stroke="black" points="643.69,-29.42 633.17,-30.67 642.17,-36.25 643.69,-29.42"/>
</g>
<!-- worker&#45;src -->
<g id="node22" class="node">
<title>worker&#45;src</title>
<ellipse fill="none" stroke="black" cx="491.69" cy="-234" rx="60.39" ry="18"/>
<text text-anchor="middle" x="491.69" y="-230.3" font-family="Times,serif" font-size="14.00">worker&#45;src</text>
</g>
<!-- child&#45;src -->
<g id="node23" class="node">
<title>child&#45;src</title>
<ellipse fill="none" stroke="black" cx="558.69" cy="-162" rx="50.09" ry="18"/>
<text text-anchor="middle" x="558.69" y="-158.3" font-family="Times,serif" font-size="14.00">child&#45;src</text>
</g>
<!-- worker&#45;src&#45;&gt;child&#45;src -->
<g id="edge14" class="edge">
<title>worker&#45;src&#45;&gt;child&#45;src</title>
<path fill="none" stroke="green" d="M507.57,-216.41C516,-207.61 526.51,-196.63 535.8,-186.92"/>
<polygon fill="green" stroke="green" points="538.54,-189.11 542.93,-179.47 533.49,-184.27 538.54,-189.11"/>
</g>
<!-- child&#45;src&#45;&gt;default&#45;src -->
<g id="edge18" class="edge">
<title>child&#45;src&#45;&gt;default&#45;src</title>
<path fill="none" stroke="blue" d="M562.64,-143.83C565.01,-133.46 568.06,-119.98 570.69,-108 575.25,-87.3 580.25,-63.85 583.97,-46.22"/>
<polygon fill="blue" stroke="blue" points="587.47,-46.58 586.11,-36.08 580.63,-45.14 587.47,-46.58"/>
</g>
<!-- child&#45;src&#45;&gt;script&#45;src -->
<g id="edge15" class="edge">
<title>child&#45;src&#45;&gt;script&#45;src</title>
<path fill="none" stroke="green" d="M546.37,-144.41C540.12,-135.99 532.39,-125.58 525.41,-116.2"/>
<polygon fill="green" stroke="green" points="528.06,-113.9 519.29,-107.96 522.44,-118.07 528.06,-113.9"/>
</g>
<!-- frame&#45;src -->
<g id="node24" class="node">
<title>frame&#45;src</title>
<ellipse fill="none" stroke="black" cx="625.69" cy="-234" rx="55.49" ry="18"/>
<text text-anchor="middle" x="625.69" y="-230.3" font-family="Times,serif" font-size="14.00">frame&#45;src</text>
</g>
<!-- frame&#45;src&#45;&gt;child&#45;src -->
<g id="edge17" class="edge">
<title>frame&#45;src&#45;&gt;child&#45;src</title>
<path fill="none" stroke="blue" d="M609.82,-216.41C601.39,-207.61 590.88,-196.63 581.59,-186.92"/>
<polygon fill="blue" stroke="blue" points="583.9,-184.27 574.46,-179.47 578.84,-189.11 583.9,-184.27"/>
</g>
</g>
</svg>
